<?xml version="1.0" encoding="UTF-8" standalone="no"?>
<svg width="15px" height="15px" viewBox="0 0 15 15" version="1.1" xmlns="http://www.w3.org/2000/svg" xmlns:xlink="http://www.w3.org/1999/xlink">
    <!-- Generator: Sketch 40.3 (33839) - http://www.bohemiancoding.com/sketch -->
    <title>Page 1 Copy 5</title>
    <desc>Created with Sketch.</desc>
    <defs></defs>
    <g id="Page-1" stroke="none" stroke-width="1" fill="none" fill-rule="evenodd">
        <g id="Page-1-Copy-5" fill="#313131">
            <g id="Group-3" transform="translate(0.000000, 0.451672)">
                <path d="M13.5583619,7.1894582 C13.5583619,6.17103715 13.5885055,5.15122291 13.5526203,4.13558824 C13.4923332,2.415 12.488984,1.41608359 10.7090797,1.37986068 C8.5990318,1.33527864 6.48754855,1.33527864 4.3775007,1.37986068 C2.5990318,1.41747678 1.58707008,2.40524768 1.54687869,4.14255418 C1.50238109,6.1905418 1.50238109,8.2399226 1.5483141,10.2879102 C1.58707008,11.9917802 2.6191275,12.993483 4.36745286,13.0255263 C6.48898396,13.067322 8.61338587,13.067322 10.734917,13.0255263 C12.4760653,12.9920898 13.4937686,11.9792415 13.5526203,10.2795511 C13.5870701,9.24998452 13.5583619,8.21902477 13.5583619,7.1894582 M10.364582,14.3964241 L4.65884042,14.3964241 C4.46649592,14.3713467 4.27271601,14.3351238 4.07893611,14.3253715 C2.15836195,14.218096 0.694247115,13.015774 0.30955812,11.208808 C0.230610751,10.8368266 0.194725584,10.4578793 0.138744723,10.0803251 L0.138744723,4.32645511 C0.16171123,4.16345201 0.197596397,4.00044892 0.207644244,3.83605263 C0.321041373,1.97893189 1.53539544,0.575990712 3.38850549,0.185897833 C3.78037152,0.102306502 4.18515621,0.068869969 4.58563467,0.0131424149 L10.5124289,0.0131424149 C10.6818069,0.0354334365 10.8497495,0.0702631579 11.0191275,0.078622291 C13.1621897,0.20122291 14.7985533,1.71283282 14.864582,3.78868421 C14.9363524,6.06097523 14.9277399,8.33883901 14.8660175,10.6125232 C14.8172136,12.4208824 13.5999887,13.7750619 11.7870701,14.1916254 C11.3219983,14.2989009 10.8382663,14.3295511 10.364582,14.3964241" id="Fill-1"></path>
            </g>
            <path d="M10.0035773,7.6453096 C10.0007064,6.31063467 8.90979735,5.26434985 7.5275007,5.27131579 C6.1552519,5.27688854 5.0830031,6.33849845 5.09161554,7.68153251 C5.09879257,8.99670279 6.18539544,10.038808 7.5475964,10.038808 C8.92415142,10.038808 10.0064481,8.9827709 10.0035773,7.6453096 M11.3471179,7.66760062 C11.3385055,9.72673375 9.64329018,11.3567647 7.52319448,11.3414396 C5.41314664,11.3275077 3.74807487,9.70165635 3.74663946,7.65924149 C3.74663946,5.59732198 5.43037152,3.96171827 7.55190262,3.96589783 C9.67486912,3.96868421 11.354295,5.60846749 11.3471179,7.66760062" id="Fill-4"></path>
            <path d="M11.502716,2.96099071 C12.01085,2.96099071 12.3869265,3.32739938 12.3840557,3.81919505 C12.3826203,4.2998452 11.9835773,4.68993808 11.4969744,4.68575851 C11.0161131,4.68297214 10.5998452,4.27894737 10.6012806,3.81501548 C10.602716,3.34272446 11.0060653,2.96099071 11.502716,2.96099071" id="Fill-6"></path>
        </g>
    </g>
</svg>