<?xml version="1.0" encoding="UTF-8" standalone="no"?>
<svg width="25px" height="20px" viewBox="0 0 25 20" version="1.1" xmlns="http://www.w3.org/2000/svg" xmlns:xlink="http://www.w3.org/1999/xlink">
    <!-- Generator: Sketch 40.3 (33839) - http://www.bohemiancoding.com/sketch -->
    <title>Page 1 Copy 2</title>
    <desc>Created with Sketch.</desc>
    <defs>
        <polygon id="path-1" points="24.774381 -2.27272722e-05 9.52380947e-05 -2.27272722e-05 9.52380947e-05 19.9488182 24.774381 19.9488182"></polygon>
    </defs>
    <g id="Page-1" stroke="none" stroke-width="1" fill="none" fill-rule="evenodd">
        <g id="Page-1-Copy-2" transform="translate(12.500000, 10.000000) rotate(-180.000000) translate(-12.500000, -10.000000) ">
            <mask id="mask-2" fill="white">
                <use xlink:href="#path-1"></use>
            </mask>
            <g id="Clip-2"></g>
            <path d="M13.7067619,12.6579091 C13.7067619,6.04654545 18.2755714,1.89063636 20.1329524,0.323136364 C20.7055714,-0.0845909091 21.2750952,-0.154136364 21.7750952,0.392454545 L22.844619,1.34404545 C23.2748571,1.82131818 23.1324762,2.50381818 22.6324762,2.91154545 C21.8477143,3.52472727 17.8486667,6.45722727 17.7789048,11.2263182 C17.8486667,11.2263182 18.7755714,10.8849545 19.9905714,10.8849545 C22.5598571,10.8849545 24.774381,12.8631364 24.774381,15.3822273 C24.774381,17.9040455 22.5598571,19.9488182 19.6331905,19.9488182 C17.0639048,19.9488182 13.7067619,18.2454091 13.7067619,12.6579091 M9.52380947e-05,12.6579091 C9.52380947e-05,6.04654545 4.56890476,1.89063636 6.42628571,0.323136364 C6.99866667,-0.0845909091 7.49866667,-0.154136364 7.99842857,0.392454545 L9.06819048,1.34404545 C9.49557143,1.82131818 9.42580952,2.50381818 8.85295238,2.91154545 C8.06819048,3.52472727 4.072,6.45722727 3.99938095,11.2263182 C4.1417619,11.2263182 4.99914286,10.8849545 6.21128571,10.8849545 C8.78319048,10.8849545 10.9950952,12.8631364 10.9950952,15.3822273 C10.9950952,17.9040455 8.78319048,19.9488182 5.85652381,19.9488182 C3.28438095,19.9488182 9.52380947e-05,18.2454091 9.52380947e-05,12.6579091" id="Fill-1" fill="#0E45DE" mask="url(#mask-2)"></path>
        </g>
    </g>
</svg>