<?xml version="1.0" encoding="utf-8"?>
<!-- Generator: Adobe Illustrator 19.2.0, SVG Export Plug-In . SVG Version: 6.00 Build 0)  -->
<svg version="1.0" id="Calque_1" xmlns="http://www.w3.org/2000/svg" xmlns:xlink="http://www.w3.org/1999/xlink" x="0px" y="0px"
	 viewBox="0 0 375.7 375.7" style="enable-background:new 0 0 375.7 375.7;" xml:space="preserve">
<style type="text/css">
	.st0{fill:#FFFFFF;}
	.st1{fill:#0E45DE;}
</style>
<circle class="st0" cx="187.8" cy="187.8" r="176.7"/>
<g>
	<g>
		<path class="st1" d="M326.2,97.8l-20.3-26.5c-0.6-0.7-1.4-1.2-2.3-1.3c-0.9-0.1-1.9,0.1-2.6,0.7L262.9,100
			c-19.7-16.3-45-26.2-72.6-26.2c-0.2,0-0.3,0-0.5,0c-28.5,0.1-54.5,10.7-74.5,28.2l-0.5-0.4L74.7,70.7c-0.7-0.6-1.7-0.8-2.6-0.7
			c-0.9,0.1-1.8,0.6-2.3,1.3L49.4,97.8c-1.2,1.5-0.9,3.7,0.6,4.9L89.4,133l0.7,0.5c-8.8,16.2-13.8,34.7-13.8,54.3
			c0,16.8,3.7,32.8,10.2,47.2c0.5,1.1,1,2.2,1.5,3.2c0.5,1.1,1.1,2.1,1.6,3.2c4.2,7.8,9.2,15.1,15,21.7c0.8,0.9,1.6,1.7,2.4,2.6
			c0.8,0.9,1.6,1.7,2.4,2.5c20.5,20.6,48.9,33.5,80.3,33.6c0.2,0,0.3,0,0.5,0c30.2,0,57.8-11.8,78.2-31.1c0.9-0.8,1.7-1.6,2.5-2.5
			c0.8-0.8,1.6-1.7,2.4-2.5c6-6.4,11.3-13.5,15.7-21.2c0.6-1,1.2-2.1,1.7-3.1c0.6-1,1.1-2.1,1.6-3.2c7.5-15.2,11.8-32.4,11.8-50.5
			c0-20.8-5.6-40.2-15.3-57l36.6-28.1C327.1,101.5,327.4,99.3,326.2,97.8z M93,126.9l-14.9-11.4l7.9-10.4c1.2-1.5,0.9-3.7-0.6-4.9
			c-1.5-1.2-3.7-0.9-4.9,0.6l-7.9,10.4L57.1,99.3l16.1-20.9l36.4,28l0.6,0.4l2.2,1.7l0.6,0.4l2.3,1.8l0.6,0.4l31.4,24.1l2.5,1.9
			l2.6,2l1.3,1L137.4,161l-0.5-0.4l-2.6-2l-2.5-1.9l-22.2-17l8-10.4c1.2-1.5,0.9-3.7-0.7-4.9c-1.5-1.2-3.7-0.9-4.9,0.7l-8,10.4
			l-4.8-3.7l-0.7-0.5l-2.1-1.6l-0.7-0.5l-2.1-1.6L93,126.9z M214.5,141.6l7.9,10.3l-6.4,5c-7-7.8-17.2-12.8-28.6-12.8
			c-11.2,0-21.2,4.8-28.2,12.4l-5.9-4.6l7.9-10.3c1.2-1.5,0.9-3.7-0.6-4.9l-2.6-2c8.6-5.7,18.7-9,29.6-9c11,0,21.3,3.4,29.9,9.1
			l-2.3,1.8C213.6,137.9,213.3,140.1,214.5,141.6z M234.8,168.1c0.6,0.7,1.4,1.2,2.3,1.3c0.2,0,0.3,0,0.5,0c0.8,0,1.5-0.3,2.1-0.7
			l1-0.8c0.9,3.5,1.4,7.1,1.7,10.7h-16.7c-0.6-5.9-2.5-11.3-5.4-16.1l6.5-5.1L234.8,168.1z M132.5,250.6l27.6-21.2
			c1.5-1.2,1.8-3.4,0.6-4.9l-7.9-10.3l6.7-5.2c7,7.4,16.9,12.1,27.9,12.1c11,0,20.9-4.7,27.9-12.1l6.7,5.2l-7.9,10.3
			c-1.2,1.5-0.9,3.7,0.6,4.9l27.6,21.2v1.9c0,2.4-1.9,4.3-4.3,4.3H136.8c-2.4,0-4.3-1.9-4.3-4.3V250.6z M129.2,163.5
			c-1.8,5.8-2.7,11.9-2.8,18.3c0,0.8,0.3,1.6,0.9,2.2c0.1,0.1,0.1,0.1,0.2,0.2c-0.9,1.5-1.4,3.3-1.4,5.2v15.1l-34,26.1
			c-5.7-13.1-8.9-27.6-8.9-42.8c0-18.1,4.5-35.1,12.4-50L129.2,163.5z M149,157.5l5.9,4.6c-3.1,4.9-5.1,10.5-5.7,16.6h-16.3
			c0.2-3.8,0.8-7.5,1.7-11l1.4,1.1c0.6,0.5,1.4,0.7,2.1,0.7c0.2,0,0.3,0,0.5,0c0.9-0.1,1.8-0.6,2.3-1.3L149,157.5z M239.3,197.4
			c-0.7-0.6-1.7-0.8-2.6-0.7c-0.9,0.1-1.8,0.6-2.3,1.3l-8.1,10.6l-6.6-5.1c3.5-5.3,5.6-11.6,6.1-18.3H238c2.4,0,4.3,1.9,4.3,4.3
			v10.3L239.3,197.4z M218.6,178.9c0.1,1,0.2,2,0.2,3c0,0.3,0,0.5,0,0.8c0,0.8,0,1.6-0.1,2.4c0,0.1,0,0.1,0,0.2
			c-0.4,5.1-2,9.9-4.6,14c-1.2,2-2.7,3.8-4.3,5.5c-5.7,5.8-13.6,9.4-22.4,9.4c-8.8,0-16.7-3.6-22.4-9.4c-1.6-1.7-3.1-3.5-4.3-5.5
			c-2.6-4.1-4.2-8.9-4.6-14c0-0.1,0-0.1,0-0.2c-0.1-0.8-0.1-1.6-0.1-2.4c0-0.3,0-0.5,0-0.8c0-1,0.1-2,0.2-3c0-0.1,0-0.1,0-0.2
			c0.6-4.4,2-8.6,4.2-12.3c1.2-2,2.6-3.9,4.3-5.6c5.7-6,13.8-9.7,22.7-9.7c9.1,0,17.3,3.9,23.1,10.1c1.6,1.7,3,3.6,4.2,5.6
			c2.1,3.6,3.4,7.5,4,11.8C218.6,178.8,218.6,178.8,218.6,178.9z M140.4,198c-0.6-0.7-1.4-1.2-2.3-1.3c-0.9-0.1-1.9,0.1-2.6,0.7
			l-3,2.3v-10.3c0-2.4,1.9-4.3,4.3-4.3h12.3c0.4,6.7,2.6,13,6.1,18.3l-6.6,5.1L140.4,198z M105.3,229.4l8,10.4
			c0.7,0.9,1.7,1.4,2.8,1.4c0.7,0,1.5-0.2,2.1-0.7c1.5-1.2,1.8-3.4,0.6-4.9l-8-10.5l15.4-11.8l6.3-4.8l4.5-3.5l16.1,20.9l-20.6,15.8
			l-6.3,4.8l-15.9,12.2c-5.8-6.6-10.9-13.9-15-21.7L105.3,229.4z M267.3,261l-18.7-14.4l-6.3-4.8L221.7,226l16.1-20.9l4.5,3.5
			l6.3,4.8l17,13.1l-8,10.4c-1.2,1.5-0.9,3.7,0.6,4.9c0.6,0.5,1.4,0.7,2.1,0.7c1.1,0,2.1-0.5,2.8-1.4l8-10.4l11.7,9l0.7,0.5
			c-4.3,7.7-9.6,14.8-15.7,21.2L267.3,261z M296.3,187.8c0,16.3-3.7,31.7-10.2,45.6l-37.5-28.9v-15.1c0-1.8-0.5-3.5-1.3-5
			c0.2-0.1,0.3-0.2,0.5-0.4c0.6-0.6,0.9-1.4,0.9-2.2c0-6.2-1-12.3-2.7-18l36.7-28.2C291.4,151.1,296.3,168.9,296.3,187.8z
			 M115.2,263.9l11.4-8.8c1.2,4.5,5.3,7.9,10.2,7.9H238c4.9,0,9-3.4,10.2-7.9l14.1,10.8c-19,17.8-44.5,28.7-72.5,28.8
			C160.8,294.7,134.4,282.9,115.2,263.9z M256.7,104.8l-34,26.1c-9.9-7.2-22-11.4-35.1-11.4c-12.9,0-24.9,4.2-34.8,11.2L121,106.3
			c18.6-15.8,42.6-25.4,68.8-25.5C215.1,80.9,238.4,89.9,256.7,104.8z M284.6,125.4l-2.1,1.6l-0.7,0.5l-2.2,1.7l-0.7,0.5l-35.5,27.3
			l-2.5,2l-2.6,2l-0.2,0.1l-16.1-20.9l1-0.8l2.6-2l2.5-1.9l20.2-15.5l8.6,11.2c0.7,0.9,1.7,1.4,2.8,1.4c0.7,0,1.5-0.2,2.1-0.7
			c1.5-1.2,1.8-3.4,0.7-4.9l-8.6-11.2l8.1-6.2l0.5-0.4l2.3-1.8l0.5-0.4l2.2-1.7l0.5-0.4l11.6-8.9l8.6,11.2c0.7,0.9,1.7,1.4,2.8,1.4
			c0.7,0,1.5-0.2,2.1-0.7c1.5-1.2,1.8-3.4,0.6-4.9l-8.6-11.2l17-13.1l16.1,20.9l-33.2,25.5L284.6,125.4z"/>
		<path class="st1" d="M202.1,178.9c0-0.1,0-0.1,0-0.2c-1.7-6.5-7.6-11.4-14.7-11.4c-7,0-13,4.8-14.6,11.4c0,0.1,0,0.1,0,0.2
			c-0.2,1-0.4,1.9-0.4,3c0,0.2,0,0.4,0,0.6c0,0.9,0.1,1.7,0.2,2.5c0,0.1,0,0.1,0,0.2c1.3,7.1,7.5,12.5,14.9,12.5
			c7.4,0,13.6-5.4,14.9-12.5c0-0.1,0-0.1,0-0.2c0.1-0.8,0.2-1.6,0.2-2.5c0-0.2,0-0.4,0-0.6C202.5,180.8,202.3,179.8,202.1,178.9z
			 M195.5,182.5c0,0.9-0.1,1.7-0.4,2.5c0,0.1,0,0.1-0.1,0.2c-1.1,3.2-4.1,5.5-7.7,5.5c-3.6,0-6.6-2.3-7.7-5.5c0-0.1,0-0.1-0.1-0.2
			c-0.3-0.8-0.4-1.6-0.4-2.5c0-0.2,0-0.4,0-0.6c0.1-1.1,0.4-2.1,0.8-3c0-0.1,0.1-0.1,0.1-0.2c1.4-2.6,4.1-4.4,7.2-4.4
			c3.1,0,5.8,1.8,7.2,4.4c0,0.1,0.1,0.1,0.1,0.2c0.4,0.9,0.7,1.9,0.8,3C195.5,182,195.5,182.3,195.5,182.5z"/>
	</g>
	<g>
		<path class="st1" d="M76.2,247.6c0.3-0.2,0.8-0.1,1,0.2l4.6,7.6c2.4,3.9,1.1,9-2.7,11.3c-3.9,2.4-9.1,1.1-11.4-2.8l-2-3.3
			l-7.4,4.5c-0.3,0.2-0.8,0.1-1-0.2l-2.3-3.7c-0.2-0.3-0.1-0.8,0.2-1L76.2,247.6z M72.1,260.9c0.8,1.4,2.6,1.9,4,1
			c1.3-0.8,1.7-2.6,0.8-3.9l-1.8-3l-4.8,2.9L72.1,260.9z"/>
		<path class="st1" d="M69.2,281.8l26.2-8.3c0.2-0.1,0.6,0,0.7,0.2l0.2,0.3c0.2,0.2,0.2,0.5,0.1,0.7l-10.6,25.3
			c-0.2,0.5-0.8,0.6-1.1,0.2l-2.8-3c-0.4-0.5-0.5-0.9-0.2-1.6l1.3-3l-6.8-7.4l-3.1,1c-0.5,0.2-1.1,0.2-1.6-0.4l-2.7-3
			C68.5,282.5,68.7,281.9,69.2,281.8z M85.3,287.7l2.6-6.2l0,0l-6.4,2.1L85.3,287.7z"/>
		<path class="st1" d="M110,288.3c0.2-0.3,0.6-0.4,1-0.2l0.8,0.5l4.4,20l0,0l7.3-10.9c0.2-0.3,0.6-0.4,1-0.2l3.7,2.5
			c0.3,0.2,0.4,0.7,0.2,1l-13.8,20.7c-0.2,0.3-0.6,0.4-1,0.2l-0.5-0.3c-0.1-0.1-0.3-0.3-0.3-0.4l-4-20.3l0,0l-7.7,11.5
			c-0.2,0.3-0.6,0.4-1,0.2l-3.7-2.4c-0.3-0.2-0.4-0.7-0.2-1L110,288.3z"/>
		<path class="st1" d="M137.5,305.1c0.1-0.3,0.6-0.5,0.9-0.4l4.1,1.7c0.3,0.1,0.5,0.6,0.4,0.9l-9.6,22.6c-0.1,0.3-0.6,0.5-0.9,0.4
			l-4.1-1.7c-0.3-0.1-0.5-0.6-0.4-0.9L137.5,305.1z"/>
		<path class="st1" d="M151.7,310.7c0.1-0.4,0.5-0.6,0.9-0.5l14.9,3.8c0.4,0.1,0.6,0.5,0.5,0.9l-1,3.9c-0.1,0.4-0.5,0.6-0.9,0.5
			l-9.9-2.5l-1.3,5.2l8.2,2.1c0.4,0.1,0.6,0.5,0.5,0.9l-1,3.9c-0.1,0.4-0.5,0.6-0.9,0.5l-8.2-2.1l-2.2,8.7c-0.1,0.4-0.5,0.6-0.9,0.5
			l-4.2-1.1c-0.4-0.1-0.6-0.5-0.5-0.9L151.7,310.7z"/>
		<path class="st1" d="M174.9,315.5c0-0.4,0.4-0.7,0.8-0.6l4.4,0.4c0.4,0,0.7,0.4,0.6,0.8l-2.4,24.4c0,0.4-0.4,0.7-0.8,0.6l-4.4-0.4
			c-0.4,0-0.7-0.4-0.6-0.8L174.9,315.5z"/>
		<path class="st1" d="M201.7,314.8c3.7-0.3,6.5,0.7,9.2,2.8c0.4,0.3,0.4,0.7,0.1,1l-2.7,3.2c-0.2,0.3-0.6,0.3-0.9,0.1
			c-1.5-1.1-3.3-1.7-5.1-1.5c-4.2,0.3-7,4-6.7,8.1c0.3,4.1,3.6,7.3,7.8,7c1.7-0.1,3.6-0.9,4.8-2.1c0.2-0.2,0.7-0.3,1,0l3.1,2.9
			c0.3,0.2,0.3,0.7,0,1c-2.3,2.6-5.4,4-8.7,4.2c-7.4,0.5-13.7-4.9-14.3-12.3S194.3,315.4,201.7,314.8z"/>
		<path class="st1" d="M223.5,337.5l3.7-27.2c0-0.2,0.2-0.5,0.5-0.6l0.4-0.1c0.2-0.1,0.5,0,0.7,0.2l18.4,20.4
			c0.4,0.4,0.2,0.9-0.3,1.1l-3.9,1.2c-0.6,0.2-1,0.1-1.5-0.5l-2.1-2.4l-9.6,3l-0.4,3.2c0,0.5-0.3,1-1,1.2l-3.9,1.2
			C223.8,338.4,223.4,338.1,223.5,337.5z M235.7,325.5l-4.5-5l0,0l-0.9,6.7L235.7,325.5z"/>
		<path class="st1" d="M251.1,315.4c-3.7-6.4-1.5-14.5,4.9-18.2c3.2-1.9,6.1-2.2,9.5-1.5c0.4,0.1,0.7,0.5,0.6,0.9l-1,4
			c-0.1,0.4-0.4,0.6-0.8,0.5c-1.8-0.4-3.7,0-5.3,0.9c-3.6,2.1-4.5,6.6-2.5,10.2c2.1,3.6,6.5,4.9,10.1,2.9c1.5-0.9,2.8-2.4,3.4-4
			c0.1-0.3,0.5-0.6,0.9-0.4l4,1.2c0.4,0.1,0.6,0.5,0.5,0.9c-0.9,3.3-3,5.8-5.8,7.5l0.8,1.3c2.1-0.9,3.8-0.2,4.8,1.6
			c1.1,1.9,0.5,4.3-1.4,5.4c-1,0.6-2.2,0.6-3.1,0.3c-0.4-0.1-0.6-0.5-0.4-1l0.4-1.1c0.1-0.3,0.4-0.4,0.7-0.3c0.3,0.1,0.7,0,0.9-0.2
			c0.5-0.3,0.7-1.1,0.4-1.6c-0.3-0.4-0.9-1.1-3-0.1c-0.5,0.2-0.8-0.1-0.9-0.3l-1.7-2.9C261.2,323.4,254.4,321.1,251.1,315.4z"/>
		<path class="st1" d="M270.5,282.1c-0.3,0-0.6-0.2-0.7-0.5c-0.2-0.7-0.7-3.6,0.8-5c1.3-1.2,3.1-0.5,4.1-1.5
			c0.4-0.4,0.3-1.3,0.2-1.8c-0.1-0.3,0.1-0.7,0.6-0.7l1.6-0.2c0.4,0,0.7,0.2,0.8,0.8c0.2,0.7,0.7,3.3-0.7,4.6
			c-1.4,1.3-3.3,0.6-4.2,1.5c-0.5,0.5-0.2,1.5-0.2,2c0,0.3-0.2,0.5-0.6,0.6L270.5,282.1z M285.4,308.1l-8.5-26.1
			c-0.1-0.2,0-0.5,0.2-0.7l0.3-0.3c0.2-0.2,0.5-0.2,0.7-0.1l25.5,10.3c0.5,0.2,0.6,0.8,0.2,1.1l-3,2.8c-0.5,0.5-0.9,0.5-1.6,0.2
			l-3-1.2l-7.4,6.9l1,3.1c0.2,0.5,0.2,1.1-0.4,1.6l-3,2.8C286.2,308.7,285.6,308.6,285.4,308.1z M291.2,291.9l-6.2-2.5l0,0l2.1,6.4
			L291.2,291.9z"/>
		<path class="st1" d="M297.2,257.4c4-6.2,12.3-7.9,18.5-3.9c6.2,4,7.9,12.2,3.8,18.4c-4,6.2-12.2,7.9-18.4,3.9
			S293.1,263.6,297.2,257.4z M314.5,268.7c2.2-3.4,1.3-8-2.1-10.2c-3.4-2.2-8-1.3-10.3,2.1c-2.2,3.4-1.2,8,2.2,10.2
			C307.7,273.1,312.3,272.1,314.5,268.7z"/>
	</g>
	<g>
		<path class="st1" d="M105.3,63.8c-0.2-0.3-0.1-0.8,0.2-1l13-8.1c0.3-0.2,0.8-0.1,1,0.2l2.1,3.4c0.2,0.3,0.1,0.8-0.2,1l-8.7,5.4
			l2.8,4.5l7.2-4.4c0.3-0.2,0.8-0.1,1,0.2l2.1,3.4c0.2,0.3,0.1,0.8-0.2,1l-7.2,4.4l4.7,7.6c0.2,0.3,0.1,0.8-0.2,1l-3.7,2.3
			c-0.3,0.2-0.8,0.1-1-0.2L105.3,63.8z"/>
		<path class="st1" d="M130,49.9c-0.1-0.3,0-0.8,0.4-0.9l10.4-3.8c4.2-1.5,8.8,0.6,10.3,4.7c1.2,3.2,0,6.5-2.6,8.9l8,7.1
			c0.4,0.4,0.4,1-0.2,1.2l-4.6,1.7c-0.3,0.1-0.5,0-0.7-0.1l-8-7.5l-2.4,0.9l3.2,8.9c0.1,0.3-0.1,0.8-0.4,0.9l-4.1,1.5
			c-0.4,0.1-0.8-0.1-0.9-0.4L130,49.9z M144.2,55.8c1.4-0.5,2.2-2.3,1.6-3.7c-0.5-1.5-2.2-2.2-3.6-1.7l-5.1,1.9l2,5.4L144.2,55.8z"
			/>
		<path class="st1" d="M161.1,64.7l8.2-26.2c0.1-0.2,0.3-0.5,0.6-0.5l0.4,0c0.3,0,0.5,0.1,0.7,0.3l14.8,23.1c0.3,0.4,0.1,1-0.5,1
			l-4.1,0.5c-0.7,0.1-1-0.1-1.4-0.7l-1.7-2.7l-10,1.3l-0.9,3.1c-0.1,0.5-0.5,1-1.2,1.1l-4,0.5C161.3,65.6,161,65.2,161.1,64.7z
			 M175.1,54.8l-3.6-5.7l0,0l-1.9,6.4L175.1,54.8z"/>
		<path class="st1" d="M193.6,36.9c0-0.4,0.4-0.6,0.8-0.6l0.9,0.1l13.4,15.5l0,0l1.2-13.1c0-0.4,0.4-0.7,0.8-0.6l4.4,0.4
			c0.4,0,0.7,0.4,0.6,0.8l-2.4,24.8c0,0.4-0.4,0.6-0.8,0.6l-0.6-0.1c-0.1,0-0.4-0.1-0.5-0.2l-13.2-16l0,0L197,62.2
			c0,0.4-0.4,0.7-0.8,0.6l-4.4-0.4c-0.4,0-0.7-0.4-0.6-0.8L193.6,36.9z"/>
		<path class="st1" d="M241.1,45.3c3.5,1.2,5.7,3.2,7.4,6.1c0.2,0.4,0.1,0.8-0.3,1l-3.7,1.9c-0.3,0.2-0.7,0-0.9-0.3
			c-0.9-1.6-2.4-2.8-4.1-3.4c-4-1.3-8,1-9.3,4.9c-1.3,3.9,0.5,8.1,4.5,9.5c1.6,0.6,3.6,0.6,5.3-0.1c0.3-0.1,0.8,0,0.9,0.3l1.7,3.8
			c0.2,0.3,0,0.8-0.4,0.9c-3.2,1.5-6.6,1.6-9.7,0.5c-7-2.4-10.8-9.9-8.4-16.9C226.6,46.7,234.1,42.9,241.1,45.3z"/>
		<path class="st1" d="M260.2,54.6c0.2-0.3,0.6-0.5,1-0.2l13.2,7.8c0.4,0.2,0.4,0.6,0.2,1l-2.1,3.5c-0.2,0.3-0.6,0.5-1,0.2l-8.8-5.2
			l-2.3,3.9l7.3,4.3c0.3,0.2,0.4,0.6,0.2,1l-2.1,3.5c-0.2,0.3-0.6,0.4-1,0.2l-7.3-4.3l-2.5,4.3l8.8,5.2c0.4,0.2,0.4,0.6,0.2,1
			l-2.1,3.5c-0.2,0.3-0.6,0.5-1,0.2l-13.2-7.8c-0.3-0.2-0.4-0.6-0.2-1L260.2,54.6z"/>
	</g>
</g>
</svg>
