<?xml version="1.0" encoding="utf-8"?>
<!-- Generator: Adobe Illustrator 19.2.0, SVG Export Plug-In . SVG Version: 6.00 Build 0)  -->
<svg version="1.0" id="Calque_1" xmlns="http://www.w3.org/2000/svg" xmlns:xlink="http://www.w3.org/1999/xlink" x="0px" y="0px"
	 viewBox="0 0 202.7 207.3" style="enable-background:new 0 0 202.7 207.3;" xml:space="preserve">
<style type="text/css">
	.st0{fill:#E22000;}
	.st1{fill:#FFFFFF;}
</style>
<g>
	<circle class="st0" cx="101.3" cy="103.7" r="87.9"/>
	<path class="st1" d="M61.9,149.9L61.9,149.9c-2.3,0-4.2-0.7-5.6-2.1c-3.2-3.2-1.9-8.2-1.8-8.4c0.1-0.3,0.2-0.5,0.4-0.7l8-8.2
		c0.4-0.4,0.9-0.6,1.4-0.5c0.5,0.1,1,0.4,1.3,0.8c1.6,2.8,6.2,6.5,7.8,7.8c0.4,0.3,0.7,0.8,0.7,1.3c0,0.5-0.2,1-0.5,1.3l-8.2,7.9
		c-0.2,0.2-0.4,0.3-0.7,0.4C64.6,149.5,63.4,149.9,61.9,149.9z M57.7,140.7c-0.2,0.9-0.4,3.3,1,4.7c0.7,0.7,1.8,1.1,3.2,1.1
		c0.6,0,1.1-0.1,1.4-0.1l6.5-6.2c-1.6-1.3-4.2-3.5-6-5.8L57.7,140.7z"/>
	<path class="st1" d="M138.6,75.5c-0.1,0-0.1,0-0.2,0c-0.5-0.1-1-0.4-1.3-0.8c-1.6-2.8-6.2-6.5-7.8-7.8c-0.4-0.3-0.7-0.8-0.7-1.3
		c0-0.5,0.2-1,0.5-1.3l8.2-7.9c0.2-0.2,0.4-0.3,0.7-0.4c0.1,0,1.2-0.4,2.7-0.4c2.3,0,4.2,0.7,5.6,2.1c3.2,3.2,1.9,8.2,1.8,8.4
		c-0.1,0.3-0.2,0.5-0.4,0.7l-8,8.2C139.5,75.3,139,75.5,138.6,75.5z M132.8,65.3c1.6,1.3,4.2,3.5,6,5.8l6.2-6.3
		c0.2-0.9,0.4-3.3-1-4.7c-0.7-0.7-1.8-1.1-3.2-1.1c-0.6,0-1.1,0.1-1.4,0.1L132.8,65.3z"/>
	<path class="st1" d="M80.7,144.1c-1.4,0-7-0.5-14.1-7.5c-7.9-7.9-7.2-13.3-7.1-13.9c0.1-0.3,0.2-0.6,0.5-0.9l29-29c0,0,0,0,0,0
		l31.6-31.6c0.3-0.3,0.7-0.5,1.1-0.5c0.3,0,6.4-0.5,14.4,7.5c7.9,7.9,7.2,13.3,7.1,13.9c-0.1,0.3-0.2,0.6-0.5,0.9l-29,29
		c0,0,0,0,0,0l-31.6,31.6c-0.3,0.3-0.7,0.5-1.1,0.5C81,144.1,80.9,144.1,80.7,144.1z M62.9,123.7c0.1,1.2,0.7,5,6.1,10.4
		c5.4,5.4,9.7,6.4,11.2,6.5l28.6-28.6c0,0,0,0,0,0l31-31c-0.1-1.2-0.7-5-6.1-10.4c-5.4-5.4-9.7-6.4-11.2-6.5L93.9,92.7c0,0,0,0,0,0
		L62.9,123.7z"/>
	<path class="st1" d="M93.3,116.3c-0.9,0-1.7-0.8-1.7-1.7l0-9.8c0-0.9,0.8-1.7,1.7-1.7c0,0,0,0,0,0c0.9,0,1.7,0.8,1.7,1.7l0,9.8
		C95,115.5,94.2,116.3,93.3,116.3L93.3,116.3z"/>
	<path class="st1" d="M100.1,109.5c-0.9,0-1.7-0.8-1.7-1.7l0-9.8c0-0.9,0.8-1.7,1.7-1.7h0c0.9,0,1.7,0.8,1.7,1.7l0,9.8
		C101.8,108.7,101,109.5,100.1,109.5C100.1,109.5,100.1,109.5,100.1,109.5z"/>
	<path class="st1" d="M107.1,102.5c-0.9,0-1.7-0.8-1.7-1.7l0-9.8c0-0.9,0.8-1.7,1.7-1.7c0,0,0,0,0,0c0.9,0,1.7,0.8,1.7,1.7l0,9.8
		C108.8,101.8,108,102.5,107.1,102.5L107.1,102.5z"/>
	<path class="st1" d="M48.9,103.6c0-28.6,23.3-52,52-52c8.4,0,16.4,2,23.5,5.6l1.3-1.3l1.2-1.3c-7.7-4.1-16.6-6.5-26-6.5
		c-30.5,0-55.4,24.8-55.4,55.4c0,9.3,2.3,18.1,6.4,25.9l2.7-2.2C51,120.2,48.9,112.2,48.9,103.6z"/>
	<path class="st1" d="M156.2,103.6c0-9.8-2.6-19-7.1-27l-1.2,1.3l-1.3,1.3c3.9,7.3,6.1,15.6,6.1,24.5c0,28.6-23.3,52-52,52
		c-9,0-17.6-2.3-25-6.4l-2.5,2.5c8.1,4.7,17.5,7.3,27.5,7.3C131.4,159,156.2,134.2,156.2,103.6z"/>
</g>
</svg>
