<?xml version="1.0" encoding="utf-8"?>
<!-- Generator: Adobe Illustrator 19.2.0, SVG Export Plug-In . SVG Version: 6.00 Build 0)  -->
<svg version="1.0" id="Calque_1" xmlns="http://www.w3.org/2000/svg" xmlns:xlink="http://www.w3.org/1999/xlink" x="0px" y="0px"
	 viewBox="0 0 202.7 207.3" style="enable-background:new 0 0 202.7 207.3;" xml:space="preserve">
<style type="text/css">
	.st0{fill:#0E45DE;}
	.st1{fill:#FFFFFF;}
</style>
<g>
	<circle class="st0" cx="101.3" cy="103.7" r="87.9"/>
	<path class="st1" d="M168.4,60l-9.8-12.8c-0.3-0.4-0.7-0.6-1.1-0.6c-0.4-0.1-0.9,0.1-1.3,0.3l-18.5,14.2
		c-9.6-7.9-21.8-12.7-35.2-12.7c-0.1,0-0.2,0-0.2,0c-13.8,0.1-26.4,5.2-36.1,13.6L66,61.9l-19.5-15c-0.4-0.3-0.8-0.4-1.3-0.3
		c-0.4,0.1-0.9,0.3-1.1,0.6L34.3,60c-0.6,0.7-0.4,1.8,0.3,2.4l19.1,14.7l0.3,0.3c-4.3,7.8-6.7,16.8-6.7,26.3c0,8.1,1.8,15.9,5,22.9
		c0.2,0.5,0.5,1,0.7,1.6c0.3,0.5,0.5,1,0.8,1.5c2,3.8,4.5,7.3,7.3,10.5c0.4,0.4,0.8,0.8,1.1,1.3c0.4,0.4,0.8,0.8,1.2,1.2
		c10,10,23.7,16.2,38.9,16.3c0.1,0,0.2,0,0.2,0c14.6,0,28-5.7,37.9-15.1c0.4-0.4,0.8-0.8,1.2-1.2c0.4-0.4,0.8-0.8,1.2-1.2
		c2.9-3.1,5.5-6.5,7.6-10.3c0.3-0.5,0.6-1,0.8-1.5c0.3-0.5,0.5-1,0.8-1.5c3.7-7.4,5.7-15.7,5.7-24.5c0-10.1-2.7-19.5-7.4-27.6
		l17.7-13.6C168.8,61.8,169,60.8,168.4,60z M55.4,74.1l-7.2-5.5l3.9-5c0.6-0.7,0.4-1.8-0.3-2.4c-0.7-0.6-1.8-0.4-2.4,0.3l-3.8,5
		L38,60.8l7.8-10.1l17.7,13.6l0.3,0.2l1.1,0.8l0.3,0.2l1.1,0.9l0.3,0.2l15.2,11.7l1.2,0.9l1.2,1l0.6,0.5l-7.8,10.1l-0.3-0.2l-1.3-1
		l-1.2-0.9l-10.8-8.3l3.9-5c0.6-0.7,0.4-1.8-0.3-2.4c-0.7-0.6-1.8-0.4-2.4,0.3l-3.9,5l-2.3-1.8l-0.3-0.3l-1-0.8l-0.3-0.3l-1-0.8
		L55.4,74.1z M114.2,81.3l3.9,5l-3.1,2.4c-3.4-3.8-8.4-6.2-13.9-6.2c-5.4,0-10.3,2.3-13.7,6l-2.9-2.2l3.9-5c0.6-0.7,0.4-1.8-0.3-2.4
		l-1.2-1c4.1-2.8,9.1-4.4,14.4-4.4c5.3,0,10.3,1.6,14.5,4.4l-1.1,0.9C113.8,79.5,113.7,80.5,114.2,81.3z M124.1,94.1
		c0.3,0.4,0.7,0.6,1.1,0.6c0.1,0,0.1,0,0.2,0c0.4,0,0.7-0.1,1-0.4l0.5-0.4c0.4,1.7,0.7,3.4,0.8,5.2h-8.1c-0.3-2.8-1.2-5.5-2.6-7.8
		l3.2-2.5L124.1,94.1z M74.5,134.1l13.4-10.3c0.7-0.6,0.9-1.6,0.3-2.4l-3.9-5l3.2-2.5c3.4,3.6,8.2,5.9,13.5,5.9
		c5.3,0,10.1-2.3,13.5-5.9l3.2,2.5l-3.9,5c-0.6,0.7-0.4,1.8,0.3,2.4l13.4,10.3v0.9c0,1.1-0.9,2.1-2.1,2.1H76.6
		c-1.1,0-2.1-0.9-2.1-2.1V134.1z M72.9,91.9c-0.9,2.8-1.3,5.8-1.3,8.9c0,0.4,0.2,0.8,0.4,1.1c0,0,0.1,0.1,0.1,0.1
		c-0.4,0.7-0.7,1.6-0.7,2.5v7.3L55,124.4c-2.8-6.4-4.3-13.4-4.3-20.7c0-8.7,2.2-17,6-24.2L72.9,91.9z M82.5,89l2.9,2.2
		c-1.5,2.4-2.5,5.1-2.8,8h-7.9c0.1-1.8,0.4-3.6,0.8-5.3l0.7,0.5c0.3,0.2,0.7,0.4,1,0.4c0.1,0,0.1,0,0.2,0c0.4-0.1,0.9-0.3,1.1-0.6
		L82.5,89z M126.3,108.3c-0.4-0.3-0.8-0.4-1.3-0.3c-0.4,0.1-0.9,0.3-1.1,0.6l-3.9,5.1l-3.2-2.5c1.7-2.6,2.7-5.6,2.9-8.9h6
		c1.1,0,2.1,0.9,2.1,2.1v5L126.3,108.3z M116.2,99.3c0.1,0.5,0.1,1,0.1,1.4c0,0.1,0,0.2,0,0.4c0,0.4,0,0.8,0,1.1c0,0,0,0.1,0,0.1
		c-0.2,2.5-1,4.8-2.2,6.8c-0.6,1-1.3,1.9-2.1,2.7c-2.8,2.8-6.6,4.6-10.8,4.6c-4.2,0-8.1-1.7-10.8-4.6c-0.8-0.8-1.5-1.7-2.1-2.7
		c-1.2-2-2-4.3-2.2-6.8c0,0,0-0.1,0-0.1c0-0.4,0-0.8,0-1.1c0-0.1,0-0.2,0-0.4c0-0.5,0-1,0.1-1.4c0,0,0-0.1,0-0.1
		c0.3-2.2,1-4.2,2.1-5.9c0.6-1,1.3-1.9,2.1-2.7c2.8-2.9,6.7-4.7,11-4.7c4.4,0,8.4,1.9,11.2,4.9c0.8,0.8,1.4,1.7,2,2.7
		C115.3,95.2,116,97.2,116.2,99.3C116.2,99.3,116.2,99.3,116.2,99.3z M78.4,108.6c-0.3-0.4-0.7-0.6-1.1-0.6
		c-0.4-0.1-0.9,0.1-1.3,0.3l-1.5,1.1v-5c0-1.1,0.9-2.1,2.1-2.1h6c0.2,3.3,1.3,6.3,2.9,8.9l-3.2,2.5L78.4,108.6z M61.3,123.8l3.9,5.1
		c0.3,0.4,0.8,0.7,1.3,0.7c0.4,0,0.7-0.1,1-0.3c0.7-0.6,0.9-1.6,0.3-2.4l-3.9-5.1l7.4-5.7l3-2.3l2.2-1.7l7.8,10.1l-10,7.7l-3,2.3
		l-7.7,5.9c-2.8-3.2-5.3-6.7-7.3-10.5L61.3,123.8z M139.9,139.1l-9.1-7l-3-2.3l-10-7.7l7.8-10.1l2.2,1.7l3,2.3l8.3,6.3l-3.9,5
		c-0.6,0.7-0.4,1.8,0.3,2.4c0.3,0.2,0.7,0.3,1,0.3c0.5,0,1-0.2,1.3-0.7l3.9-5l5.7,4.4l0.3,0.3c-2.1,3.7-4.7,7.2-7.6,10.3
		L139.9,139.1z M153.9,103.7c0,7.9-1.8,15.4-4.9,22.1l-18.2-14v-7.3c0-0.9-0.2-1.7-0.6-2.4c0.1-0.1,0.2-0.1,0.2-0.2
		c0.3-0.3,0.4-0.7,0.4-1.1c0-3-0.5-5.9-1.3-8.7l17.8-13.7C151.5,85.9,153.9,94.5,153.9,103.7z M66.1,140.5l5.5-4.2
		c0.6,2.2,2.6,3.8,4.9,3.8h49.1c2.4,0,4.4-1.6,4.9-3.8l6.8,5.2c-9.2,8.6-21.6,13.9-35.1,14C88.2,155.5,75.4,149.7,66.1,140.5z
		 M134.7,63.4l-16.5,12.7c-4.8-3.5-10.7-5.5-17-5.5c-6.3,0-12.1,2-16.9,5.5L69,64.2c9-7.7,20.6-12.3,33.3-12.4
		C114.6,51.9,125.8,56.2,134.7,63.4z M148.2,73.4l-1,0.8l-0.3,0.2l-1,0.8l-0.3,0.2l-17.2,13.2l-1.2,0.9l-1.3,1l-0.1,0.1L118,80.5
		l0.5-0.4l1.2-1l1.2-0.9l9.8-7.5l4.2,5.4c0.3,0.4,0.8,0.7,1.3,0.7c0.4,0,0.7-0.1,1-0.3c0.7-0.6,0.9-1.6,0.3-2.4l-4.2-5.4l3.9-3
		l0.3-0.2l1.1-0.9l0.3-0.2l1.1-0.8l0.3-0.2l5.6-4.3l4.2,5.4c0.3,0.4,0.8,0.7,1.3,0.7c0.4,0,0.7-0.1,1-0.3c0.7-0.6,0.9-1.6,0.3-2.4
		l-4.2-5.4l8.3-6.3l7.8,10.1l-16.1,12.4L148.2,73.4z"/>
	<path class="st1" d="M108.2,99.3C108.2,99.3,108.2,99.3,108.2,99.3c-0.8-3.2-3.7-5.6-7.1-5.6c-3.4,0-6.3,2.3-7.1,5.5
		c0,0,0,0.1,0,0.1c-0.1,0.5-0.2,0.9-0.2,1.4c0,0.1,0,0.2,0,0.3c0,0.4,0,0.8,0.1,1.2c0,0,0,0.1,0,0.1c0.6,3.4,3.6,6.1,7.2,6.1
		c3.6,0,6.6-2.6,7.2-6.1c0,0,0-0.1,0-0.1c0.1-0.4,0.1-0.8,0.1-1.2c0-0.1,0-0.2,0-0.3C108.4,100.3,108.4,99.8,108.2,99.3z
		 M105.1,101.1c0,0.4-0.1,0.8-0.2,1.2c0,0,0,0.1,0,0.1c-0.5,1.5-2,2.7-3.7,2.7c-1.7,0-3.2-1.1-3.7-2.7c0,0,0-0.1,0-0.1
		c-0.1-0.4-0.2-0.8-0.2-1.2c0-0.1,0-0.2,0-0.3c0-0.5,0.2-1,0.4-1.4c0,0,0-0.1,0-0.1c0.7-1.3,2-2.1,3.5-2.1c1.5,0,2.8,0.9,3.5,2.1
		c0,0,0,0.1,0,0.1c0.2,0.4,0.4,0.9,0.4,1.4C105.1,100.9,105.1,101,105.1,101.1z"/>
</g>
</svg>
