<?xml version="1.0" encoding="utf-8"?>
<!-- Generator: Adobe Illustrator 19.2.0, SVG Export Plug-In . SVG Version: 6.00 Build 0)  -->
<svg version="1.0" id="Calque_1" xmlns="http://www.w3.org/2000/svg" xmlns:xlink="http://www.w3.org/1999/xlink" x="0px" y="0px"
	 viewBox="0 0 375.7 375.7" style="enable-background:new 0 0 375.7 375.7;" xml:space="preserve">
<style type="text/css">
	.st0{fill:#FFFFFF;}
	.st1{fill:none;stroke:#E22000;stroke-width:7;stroke-linecap:round;stroke-linejoin:round;stroke-miterlimit:10;}
	.st2{fill:#E22000;}
</style>
<circle class="st0" cx="187.8" cy="187.8" r="176.7"/>
<g>
	<g>
		<path class="st1" d="M108.1,244.1L91.6,261c0,0-2.4,8.6,2.9,13.9c5.3,5.2,13.8,2.8,13.8,2.8l17-16.3
			C125.3,261.3,112.4,251.8,108.1,244.1z"/>
		<path class="st1" d="M261.7,124.7l16.5-16.8c0,0,2.4-8.6-2.9-13.9c-5.3-5.2-13.8-2.8-13.8-2.8l-17,16.3
			C244.6,107.5,257.4,117,261.7,124.7z"/>
		<path class="st1" d="M162,166.2l65.2-65.2c0,0,11.4-1,27,14.5c15.5,15.5,13.6,25.5,13.6,25.5l-64.9,65l5-5l-65.2,65.2
			c0,0-11.4,1-27-14.5c-15.5-15.5-13.6-25.5-13.6-25.5l64.9-65"/>
		<line class="st1" x1="168.3" y1="188.6" x2="168.3" y2="208.9"/>
		<line class="st1" x1="182.4" y1="174.5" x2="182.4" y2="194.8"/>
		<line class="st1" x1="196.7" y1="160.2" x2="196.7" y2="180.5"/>
	</g>
	<g>
		<path class="st2" d="M142.5,308.4c0.1-0.4,0.5-0.6,0.9-0.5l8.3,2.3c4.2,1.2,6.9,5,5.9,8.7c-0.8,2.8-3.8,4.1-5.7,4.5
			c1.7,1.3,4.1,3.8,3.2,7.1c-1.1,4-5.4,5.9-9.7,4.8l-8.9-2.4c-0.4-0.1-0.6-0.5-0.5-0.9L142.5,308.4z M146,330.1
			c1.4,0.4,2.9-0.4,3.3-1.9c0.4-1.4-0.8-2.9-2.2-3.3l-2.9-0.8l-1.4,5.1L146,330.1z M148.2,320.2c1.4,0.4,2.8-0.5,3.2-1.9
			c0.4-1.4-0.5-2.7-1.8-3.1l-2.8-0.8l-1.4,5L148.2,320.2z"/>
		<path class="st2" d="M180.4,314.1c7.4,0.2,13.1,6.4,12.9,13.8c-0.2,7.4-6.3,13.1-13.7,12.9c-7.4-0.2-13.1-6.3-12.9-13.7
			C167,319.6,173,313.8,180.4,314.1z M179.8,334.8c4.1,0.1,7.5-3.1,7.6-7.1c0.1-4.1-3.1-7.5-7.2-7.7c-4-0.1-7.5,3.1-7.6,7.2
			C172.5,331.2,175.7,334.6,179.8,334.8z"/>
		<path class="st2" d="M202.8,314.3c-0.1-0.4,0.2-0.8,0.5-0.8l4.4-1c0.4-0.1,0.8,0.2,0.8,0.5l3.3,14.6c0.6,2.5,2.9,4.1,5.5,3.5
			c2.6-0.6,4-3,3.5-5.6l-3.3-14.6c-0.1-0.4,0.1-0.8,0.5-0.8l4.4-1c0.4-0.1,0.8,0.2,0.8,0.5l3.4,14.9c1.3,5.5-2.3,11.1-8,12.4
			c-5.7,1.3-11.3-2.2-12.5-7.7L202.8,314.3z"/>
		<path class="st2" d="M232.8,305.9c-0.2-0.3,0-0.8,0.3-0.9l4-1.9c0.3-0.2,0.8,0,0.9,0.3l8.3,17.9l8-3.7c0.4-0.2,0.8,0,0.9,0.3
			l1.7,3.7c0.2,0.3,0,0.8-0.3,0.9l-12.6,5.9c-0.4,0.2-0.8,0-0.9-0.3L232.8,305.9z"/>
		<path class="st2" d="M266,316.4l-5.6-26.9c0-0.2,0.1-0.5,0.3-0.7l0.3-0.2c0.2-0.2,0.5-0.2,0.7,0l24.2,13.1
			c0.5,0.3,0.5,0.8,0.1,1.1l-3.3,2.5c-0.5,0.4-0.9,0.4-1.6,0l-2.8-1.6l-8.1,6l0.7,3.2c0.1,0.5,0.1,1.1-0.5,1.5l-3.3,2.4
			C266.6,317.1,266.1,316.9,266,316.4z M273.5,300.9l-5.9-3.2l0,0l1.4,6.6L273.5,300.9z"/>
		<path class="st2" d="M276.7,276.2c-0.3-0.2-0.3-0.7-0.1-1l0.6-0.7l20.3-2.5l0,0l-10.2-8.3c-0.3-0.2-0.4-0.7-0.1-1l2.8-3.4
			c0.2-0.3,0.7-0.3,1-0.1l19.3,15.7c0.3,0.2,0.3,0.7,0.1,1l-0.4,0.5c-0.1,0.1-0.3,0.2-0.4,0.3l-20.6,2l0,0l10.7,8.7
			c0.3,0.2,0.4,0.7,0.1,1l-2.8,3.4c-0.2,0.3-0.7,0.3-1,0.1L276.7,276.2z"/>
		<path class="st2" d="M300.8,238.7c1.3-2.8,3.9-5.4,6.9-6.7c0.4-0.2,0.8,0,0.9,0.4l1.6,4c0.1,0.4-0.1,0.7-0.4,0.9
			c-1.8,0.7-2.9,2-3.6,3.7c-1.7,3.7,0,8,3.7,9.8c3.7,1.7,8.1,0.1,9.8-3.6c0.5-1,0.8-2,0.8-3.2l-1.9-0.9l-1,2.1
			c-0.2,0.4-0.6,0.5-0.9,0.4l-3.3-1.5c-0.4-0.2-0.5-0.6-0.3-0.9l3.1-6.8c0.2-0.3,0.6-0.5,0.9-0.3l9.1,4.1c0.2,0.1,0.4,0.3,0.4,0.5
			c0,0,0.6,4.5-1.7,9.3c-3.1,6.7-10.9,9.6-17.6,6.5C300.6,253.3,297.7,245.4,300.8,238.7z"/>
		<path class="st2" d="M308.4,221.6c-0.4-0.1-0.6-0.4-0.5-0.8l3.3-15c0.1-0.4,0.5-0.6,0.8-0.5l3.9,0.9c0.4,0.1,0.6,0.4,0.5,0.8
			l-2.2,10l4.5,1l1.8-8.2c0.1-0.4,0.5-0.6,0.8-0.5l3.9,0.9c0.4,0.1,0.6,0.5,0.5,0.8l-1.8,8.2l4.9,1.1l2.2-10
			c0.1-0.4,0.5-0.6,0.8-0.5l3.9,0.9c0.4,0.1,0.6,0.4,0.5,0.8l-3.3,15c-0.1,0.4-0.5,0.6-0.8,0.5L308.4,221.6z"/>
		<path class="st2" d="M312.9,196.1c-0.4,0-0.7-0.3-0.7-0.7l0-11.1c0-4.4,3.6-8.1,8-8c3.4,0,6.1,2.3,7.4,5.5l9.4-5
			c0.5-0.3,1.1,0,1.1,0.6l0,4.9c0,0.3-0.2,0.5-0.3,0.6l-9.8,4.9l0,2.6l9.4,0c0.4,0,0.7,0.3,0.7,0.7l0,4.4c0,0.4-0.3,0.7-0.7,0.7
			L312.9,196.1z M323.3,184.9c0-1.5-1.4-2.8-3-2.8c-1.6,0-2.8,1.3-2.8,2.8l0,5.5l5.8,0L323.3,184.9z"/>
	</g>
	<g>
		<path class="st2" d="M59.6,171.2l-21.9-16.6c-0.2-0.2-0.3-0.4-0.3-0.7l0.1-0.4c0.1-0.3,0.3-0.5,0.5-0.5l26.8-6
			c0.5-0.1,0.9,0.3,0.8,0.8l-0.9,4c-0.1,0.7-0.4,0.9-1.2,1.1l-3.1,0.7l-2.1,9.8l2.6,1.9c0.4,0.3,0.7,0.8,0.6,1.5l-0.9,4
			C60.6,171.4,60,171.5,59.6,171.2z M55.1,154.7l-6.6,1.4l0,0l5.4,4L55.1,154.7z"/>
		<path class="st2" d="M50.1,132.3l-2.1,4.9c-0.2,0.4-0.6,0.5-0.9,0.4l-3.7-1.6c-0.3-0.1-0.5-0.5-0.4-0.9l6.4-15.1
			c0.2-0.4,0.6-0.5,0.9-0.4l3.7,1.6c0.3,0.1,0.5,0.5,0.4,0.9l-2,4.9l18.2,7.7c0.3,0.1,0.5,0.6,0.4,0.9l-1.7,4.1
			c-0.1,0.3-0.6,0.5-0.9,0.4L50.1,132.3z"/>
		<path class="st2" d="M55.5,110c-0.3-0.2-0.4-0.6-0.2-1l8.4-12.8c0.2-0.3,0.7-0.4,1-0.2l3.4,2.2c0.3,0.2,0.4,0.6,0.2,1l-5.6,8.6
			l3.8,2.5l4.6-7c0.2-0.3,0.7-0.4,1-0.2l3.4,2.2c0.3,0.2,0.4,0.7,0.2,1l-4.6,7l4.2,2.7l5.6-8.6c0.2-0.3,0.7-0.4,1-0.2l3.4,2.2
			c0.3,0.2,0.4,0.6,0.2,1L77,123.2c-0.2,0.3-0.7,0.4-1,0.2L55.5,110z"/>
		<path class="st2" d="M72.6,86.6c-0.3-0.3-0.3-0.7,0-1l3.1-3.2c0.3-0.3,0.7-0.3,1,0l14.2,13.7l6.1-6.3c0.3-0.3,0.7-0.3,1,0l2.9,2.8
			c0.3,0.3,0.3,0.7,0,1l-9.6,10c-0.3,0.3-0.7,0.3-1,0L72.6,86.6z"/>
		<path class="st2" d="M91,69.2c-0.2-0.3-0.2-0.8,0.1-1l3.5-2.7c0.3-0.2,0.8-0.2,1,0.1l15,19.4c0.2,0.3,0.2,0.8-0.1,1l-3.5,2.7
			c-0.3,0.2-0.8,0.2-1-0.1L91,69.2z"/>
		<path class="st2" d="M106.2,58.1c-0.2-0.3-0.1-0.8,0.3-1l13.4-7.4c0.4-0.2,0.8,0,1,0.3l1.9,3.5c0.2,0.3,0.1,0.8-0.3,1l-9,4.9
			l2.2,4l7.4-4.1c0.3-0.2,0.8,0,1,0.3l1.9,3.5c0.2,0.4,0,0.8-0.3,1l-7.4,4.1l2.4,4.4l9-4.9c0.4-0.2,0.8,0,1,0.3l1.9,3.5
			c0.2,0.3,0.1,0.8-0.3,1L119,79.9c-0.4,0.2-0.8,0-1-0.3L106.2,58.1z M108.3,53.4l-1.9-0.9c-0.3-0.1-0.2-0.5-0.1-0.7l2.5-5.8
			c0.2-0.3,0.5-0.5,0.8-0.4l6.3,0.9c0.2,0,0.5,0.2,0.5,0.5l-0.3,2.1c0,0.3-0.3,0.5-0.6,0.5l-4.2-0.1l-2.2,3.7
			C108.8,53.5,108.6,53.6,108.3,53.4z"/>
		<path class="st2" d="M145.7,40.8c-0.1-0.4,0.2-0.7,0.5-0.8l8.9-1.8c7-1.4,13.9,3.2,15.3,10.1c1.4,7-3.2,13.9-10.2,15.3l-8.9,1.8
			c-0.4,0.1-0.7-0.2-0.8-0.6L145.7,40.8z M158.7,58.3c4.1-0.8,6.4-4.6,5.6-8.8c-0.8-4.1-4.4-6.7-8.5-5.9l-3.5,0.7l2.9,14.7
			L158.7,58.3z"/>
		<path class="st2" d="M192.2,35c7.4,0.3,13,6.6,12.7,14s-6.5,13-13.9,12.6c-7.4-0.3-13-6.5-12.7-13.9
			C178.7,40.3,184.8,34.6,192.2,35z M191.3,55.7c4.1,0.2,7.5-3,7.7-7c0.2-4.1-3-7.6-7-7.8c-4-0.2-7.5,3-7.7,7.1
			C184.1,52,187.2,55.5,191.3,55.7z"/>
	</g>
	<path class="st2" d="M76.7,186.3c0-59.1,48.1-107.2,107.2-107.2c17.4,0,33.9,4.2,48.4,11.6L235,88l2.5-2.6
		c-16-8.5-34.2-13.4-53.5-13.4c-63,0-114.2,51.2-114.2,114.2c0,19.3,4.8,37.4,13.3,53.4l5.6-4.4C81,220.6,76.7,203.9,76.7,186.3z"/>
	<path class="st2" d="M298.2,186.3c0-20.2-5.3-39.3-14.6-55.8l-2.5,2.6l-2.6,2.7c8.1,15.1,12.7,32.3,12.7,50.5
		c0,59.1-48.1,107.2-107.2,107.2c-18.7,0-36.2-4.8-51.5-13.2l-5.2,5.1c16.7,9.6,36.1,15.1,56.7,15.1
		C246.9,300.5,298.2,249.3,298.2,186.3z"/>
</g>
</svg>
