<?xml version="1.0" encoding="utf-8"?>
<!-- Generator: Adobe Illustrator 19.2.0, SVG Export Plug-In . SVG Version: 6.00 Build 0)  -->
<svg version="1.0" id="Calque_1" xmlns="http://www.w3.org/2000/svg" xmlns:xlink="http://www.w3.org/1999/xlink" x="0px" y="0px"
	 viewBox="0 0 595.3 595.3" style="enable-background:new 0 0 595.3 595.3;" xml:space="preserve">
<style type="text/css">
	.st0{fill:#0E45DE;}
	.st1{fill:#FFFFFF;}
</style>
<g>
	<circle class="st0" cx="297.6" cy="297.6" r="283.5"/>
	<path class="st1" d="M517.4,154.7l-32.3-42c-0.9-1.2-2.2-1.9-3.7-2.1c-1.5-0.2-2.9,0.2-4.1,1.1l-60.5,46.5
		c-31.3-25.9-71.5-41.5-115.3-41.5c-0.3,0-0.5,0-0.8,0c-45.2,0.2-86.6,17-118.2,44.7l-0.8-0.7l-63.8-49c-1.2-0.9-2.7-1.3-4.1-1.1
		c-1.5,0.2-2.8,1-3.7,2.1l-32.3,42c-1.9,2.4-1.4,5.9,1,7.8l62.5,48l1.1,0.9c-14,25.7-21.9,55.1-21.9,86.3c0,26.7,5.8,52.1,16.2,74.9
		c0.8,1.7,1.6,3.4,2.4,5.1c0.8,1.7,1.7,3.4,2.6,5c6.6,12.4,14.7,24,23.9,34.4c1.2,1.4,2.5,2.8,3.7,4.1c1.3,1.4,2.6,2.7,3.9,4
		c32.6,32.8,77.7,53.2,127.5,53.4c0.3,0,0.5,0,0.8,0c48,0,91.7-18.8,124.1-49.4c1.4-1.3,2.7-2.6,4-3.9c1.3-1.3,2.6-2.7,3.9-4
		c9.5-10.2,17.9-21.5,25-33.6c0.9-1.6,1.8-3.3,2.7-4.9c0.9-1.7,1.7-3.3,2.6-5c12-24.2,18.7-51.4,18.7-80.1c0-33-8.9-63.9-24.3-90.5
		l58.1-44.6C518.8,160.6,519.3,157.1,517.4,154.7z M147.1,200.9l-23.6-18.1l12.6-16.5c1.9-2.4,1.4-5.9-1-7.8c-2.4-1.9-5.9-1.4-7.8,1
		L114.7,176l-24.6-18.9l25.5-33.2l57.9,44.5l0.9,0.7l3.5,2.7l0.9,0.7l3.6,2.8l0.9,0.7l49.8,38.3l4,3l4.1,3.1l2.1,1.6l-25.5,33.2
		l-0.8-0.7l-4.1-3.2l-4-3.1l-35.2-27.1l12.7-16.5c1.9-2.4,1.4-5.9-1-7.8c-2.4-1.9-5.9-1.4-7.8,1l-12.7,16.5l-7.6-5.8l-1.1-0.8
		l-3.4-2.6l-1.1-0.8l-3.3-2.5L147.1,200.9z M340,224.2l12.6,16.4l-10.2,8c-11.2-12.5-27.4-20.3-45.4-20.3
		c-17.7,0-33.7,7.6-44.8,19.7l-9.4-7.3l12.6-16.4c1.9-2.4,1.4-5.9-1-7.8l-4.1-3.1c13.6-9,29.8-14.3,47.1-14.3
		c17.5,0,33.8,5.4,47.4,14.5l-3.7,2.9C338.6,218.3,338.1,221.8,340,224.2z M372.2,266.3c0.9,1.2,2.2,1.9,3.7,2.1c0.2,0,0.5,0,0.7,0
		c1.2,0,2.4-0.4,3.4-1.2l1.6-1.2c1.4,5.5,2.3,11.2,2.6,17h-26.6c-0.9-9.3-4-18-8.6-25.6l10.3-8L372.2,266.3z M209.7,397.3l43.9-33.7
		c2.4-1.9,2.9-5.4,1-7.8L242,339.4l10.6-8.2c11.1,11.8,26.9,19.2,44.4,19.2c17.5,0,33.2-7.4,44.4-19.2l10.6,8.2l-12.6,16.4
		c-1.9,2.4-1.4,5.9,1,7.8l43.9,33.7v3c0,3.7-3.1,6.8-6.8,6.8H216.5c-3.7,0-6.8-3-6.8-6.8V397.3z M204.6,259.1
		c-2.8,9.2-4.3,18.9-4.4,29c0,1.3,0.5,2.6,1.4,3.5c0.1,0.1,0.2,0.2,0.3,0.3c-1.4,2.4-2.2,5.2-2.2,8.3v24l-53.9,41.4
		c-9.1-20.8-14.2-43.8-14.2-67.9c0-28.7,7.1-55.7,19.7-79.4L204.6,259.1z M235.9,249.5l9.4,7.3c-4.9,7.8-8.1,16.7-9.1,26.3h-25.9
		c0.4-6,1.3-11.9,2.8-17.5l2.2,1.7c1,0.8,2.2,1.2,3.4,1.2c0.2,0,0.5,0,0.7,0c1.5-0.2,2.8-1,3.7-2.1L235.9,249.5z M379.3,312.8
		c-1.2-0.9-2.7-1.3-4.1-1.1c-1.5,0.2-2.8,1-3.7,2.1l-12.9,16.8l-10.5-8.2c5.5-8.5,8.9-18.4,9.6-29.1h19.6c3.7,0,6.8,3,6.8,6.8v16.3
		L379.3,312.8z M346.5,283.4c0.2,1.5,0.3,3.1,0.3,4.7c0,0.4,0,0.8,0,1.2c0,1.3-0.1,2.5-0.2,3.8c0,0.1,0,0.2,0,0.3
		c-0.7,8.1-3.2,15.7-7.3,22.2c-2,3.2-4.3,6.1-6.9,8.7c-9.1,9.2-21.6,14.9-35.5,14.9c-13.9,0-26.5-5.7-35.6-14.9
		c-2.6-2.6-4.9-5.6-6.9-8.7c-4.1-6.6-6.7-14.1-7.3-22.2c0-0.1,0-0.2,0-0.3c-0.1-1.2-0.2-2.5-0.2-3.8c0-0.4,0-0.8,0-1.2
		c0-1.6,0.1-3.2,0.3-4.7c0-0.1,0-0.2,0-0.3c0.9-7,3.2-13.6,6.7-19.5c1.9-3.2,4.2-6.1,6.8-8.8c9.1-9.5,21.9-15.4,36-15.4
		c14.5,0,27.5,6.2,36.6,16c2.5,2.7,4.7,5.7,6.6,8.9c3.3,5.6,5.5,12,6.3,18.7C346.5,283.2,346.5,283.3,346.5,283.4z M222.3,313.8
		c-0.9-1.2-2.2-1.9-3.7-2.1c-1.5-0.2-2.9,0.2-4.1,1.1l-4.8,3.7v-16.3c0-3.7,3.1-6.8,6.8-6.8h19.5c0.7,10.7,4.2,20.6,9.6,29.1
		l-10.5,8.2L222.3,313.8z M166.6,363.7l12.7,16.6c1.1,1.4,2.7,2.2,4.4,2.2c1.2,0,2.4-0.4,3.4-1.1c2.4-1.9,2.9-5.4,1-7.8l-12.7-16.6
		l24.4-18.7l10-7.7l7.2-5.5l25.5,33.2l-32.7,25.1l-10,7.7l-25.2,19.4c-9.3-10.4-17.3-22-23.8-34.5L166.6,363.7z M423.9,413.8
		L394.1,391l-10-7.7l-32.7-25.1L377,325l7.2,5.5l10,7.7l27.1,20.8l-12.7,16.5c-1.9,2.4-1.4,5.9,1,7.8c1,0.8,2.2,1.1,3.4,1.1
		c1.7,0,3.3-0.8,4.4-2.2l12.7-16.5l18.6,14.3l1.1,0.9c-6.9,12.2-15.3,23.6-24.9,33.7L423.9,413.8z M469.9,297.6
		c0,25.9-5.8,50.4-16.2,72.3l-59.6-45.8v-24c0-2.9-0.7-5.5-2-7.9c0.3-0.2,0.5-0.4,0.8-0.6c0.9-0.9,1.5-2.2,1.4-3.5
		c-0.1-9.9-1.6-19.5-4.3-28.5l58.2-44.8C462.1,239.3,469.9,267.6,469.9,297.6z M182.2,418.5l18.1-13.9c1.9,7.2,8.4,12.5,16.2,12.5
		h160.8c7.8,0,14.3-5.3,16.2-12.5l22.4,17.2c-30.2,28.2-70.7,45.6-115.1,45.8C254.6,467.3,212.8,448.6,182.2,418.5z M407,165.7
		l-54,41.5c-15.8-11.4-35-18.1-55.7-18.1c-20.5,0-39.6,6.6-55.3,17.9l-50.4-38.7c29.5-25.1,67.6-40.3,109.2-40.5
		C341,127.9,378,142.1,407,165.7z M451.4,198.4l-3.3,2.5l-1.1,0.8l-3.4,2.6l-1.1,0.8l-56.4,43.4l-4,3.1l-4.1,3.2l-0.3,0.2
		l-25.5-33.2l1.7-1.3l4.1-3.1l4-3l32.1-24.7l13.6,17.8c1.1,1.4,2.7,2.2,4.4,2.2c1.2,0,2.4-0.4,3.4-1.1c2.4-1.9,2.9-5.4,1-7.8
		L402.7,183l12.8-9.9l0.9-0.7l3.7-2.8l0.9-0.7l3.5-2.7l0.9-0.7l18.5-14.2l13.7,17.8c1.1,1.4,2.7,2.2,4.4,2.2c1.2,0,2.4-0.4,3.4-1.1
		c2.4-1.9,2.9-5.4,1-7.8l-13.7-17.9l27.1-20.8l25.5,33.2l-52.8,40.6L451.4,198.4z"/>
	<path class="st1" d="M320.3,283.4c0-0.1,0-0.2-0.1-0.3c-2.7-10.4-12.1-18.1-23.3-18.1c-11.2,0-20.6,7.7-23.3,18.1
		c0,0.1,0,0.2-0.1,0.3c-0.4,1.5-0.6,3.1-0.7,4.7c0,0.3-0.1,0.7-0.1,1c0,1.4,0.1,2.7,0.4,4c0,0.1,0,0.2,0,0.3
		c2,11.3,11.8,19.8,23.6,19.8c11.8,0,21.7-8.6,23.7-19.8c0-0.1,0-0.2,0-0.3c0.2-1.3,0.4-2.6,0.4-4c0-0.3,0-0.7-0.1-1
		C320.9,286.5,320.7,284.9,320.3,283.4z M309.9,289.1c0,1.4-0.2,2.7-0.6,4c0,0.1-0.1,0.2-0.1,0.3c-1.8,5.1-6.6,8.7-12.2,8.7
		c-5.6,0-10.4-3.7-12.2-8.7c0-0.1-0.1-0.2-0.1-0.3c-0.4-1.2-0.6-2.6-0.6-4c0-0.3,0-0.7,0.1-1c0.1-1.7,0.6-3.3,1.3-4.7
		c0-0.1,0.1-0.2,0.1-0.3c2.2-4.1,6.5-6.9,11.4-6.9c5,0,9.3,2.8,11.5,6.9c0,0.1,0.1,0.2,0.1,0.3c0.7,1.4,1.2,3,1.3,4.7
		C309.9,288.4,309.9,288.8,309.9,289.1z"/>
	<g>
		<path class="st1" d="M120.3,392.5c0.5-0.3,1.2-0.2,1.5,0.4l7.3,12.1c3.7,6.2,1.8,14.3-4.3,18c-6.2,3.8-14.4,1.7-18.1-4.4l-3.2-5.3
			l-11.8,7.1c-0.5,0.3-1.2,0.1-1.5-0.4l-3.6-5.9c-0.3-0.6-0.1-1.2,0.4-1.5L120.3,392.5z M113.8,413.7c1.3,2.2,4.1,2.9,6.4,1.6
			c2.1-1.3,2.6-4.1,1.3-6.2l-2.9-4.8l-7.7,4.6L113.8,413.7z"/>
		<path class="st1" d="M109.2,446.8l41.6-13.1c0.4-0.1,0.9,0,1.2,0.3l0.4,0.4c0.3,0.3,0.3,0.8,0.2,1.2l-16.8,40.3
			c-0.3,0.8-1.2,0.9-1.8,0.3l-4.4-4.8c-0.7-0.8-0.8-1.4-0.3-2.5l2-4.7l-10.8-11.8l-4.9,1.6c-0.7,0.3-1.7,0.3-2.5-0.6l-4.4-4.8
			C108.2,447.9,108.4,447.1,109.2,446.8z M134.8,456.2l4.1-9.8l0,0l-10.1,3.3L134.8,456.2z"/>
		<path class="st1" d="M174.1,457.3c0.3-0.5,1-0.6,1.5-0.3l1.2,0.8l7,31.8l0,0l11.6-17.4c0.3-0.5,1-0.7,1.5-0.3l5.9,3.9
			c0.5,0.3,0.6,1.1,0.3,1.5l-21.9,32.9c-0.3,0.5-1,0.6-1.5,0.3l-0.8-0.5c-0.1-0.1-0.4-0.5-0.5-0.7l-6.4-32.3l0,0l-12.2,18.2
			c-0.3,0.5-1,0.7-1.5,0.3l-5.8-3.9c-0.5-0.3-0.6-1.1-0.3-1.5L174.1,457.3z"/>
		<path class="st1" d="M217.7,483.9c0.2-0.5,0.9-0.8,1.5-0.6l6.5,2.8c0.5,0.2,0.8,0.9,0.6,1.5l-15.2,35.8c-0.2,0.5-0.9,0.8-1.5,0.6
			l-6.5-2.8c-0.5-0.2-0.8-0.9-0.6-1.5L217.7,483.9z"/>
		<path class="st1" d="M240.2,492.8c0.1-0.6,0.7-1,1.4-0.8l23.6,6c0.6,0.2,1,0.8,0.8,1.4l-1.6,6.2c-0.1,0.6-0.7,1-1.4,0.8l-15.8-4
			l-2.1,8.2l13,3.3c0.6,0.1,1,0.8,0.8,1.4l-1.6,6.2c-0.1,0.6-0.8,1-1.4,0.8l-13-3.3l-3.5,13.8c-0.1,0.6-0.8,1-1.4,0.8l-6.7-1.7
			c-0.6-0.2-1-0.8-0.8-1.4L240.2,492.8z"/>
		<path class="st1" d="M277.2,500.4c0.1-0.6,0.6-1.1,1.2-1l7,0.7c0.6,0.1,1.1,0.6,1,1.2l-3.7,38.7c-0.1,0.6-0.6,1.1-1.2,1l-7-0.7
			c-0.6-0.1-1.1-0.6-1-1.2L277.2,500.4z"/>
		<path class="st1" d="M319.7,499.3c5.9-0.4,10.3,1.1,14.6,4.4c0.6,0.4,0.6,1.1,0.2,1.6l-4.2,5.1c-0.4,0.4-1,0.5-1.5,0.1
			c-2.3-1.8-5.3-2.6-8.1-2.4c-6.6,0.5-11.1,6.3-10.6,12.9c0.5,6.5,5.8,11.5,12.4,11.1c2.8-0.2,5.7-1.4,7.7-3.4
			c0.4-0.4,1.1-0.4,1.5-0.1l4.9,4.5c0.4,0.4,0.4,1.1,0.1,1.6c-3.7,4.2-8.6,6.3-13.8,6.7c-11.7,0.8-21.8-7.8-22.7-19.5
			C299.2,510.3,308,500.2,319.7,499.3z"/>
		<path class="st1" d="M354.2,535.4l6-43.2c0.1-0.4,0.4-0.8,0.8-0.9l0.6-0.2c0.4-0.1,0.9,0,1.1,0.3l29.2,32.4
			c0.6,0.6,0.3,1.5-0.5,1.8l-6.2,1.9c-1,0.3-1.6,0.1-2.4-0.8l-3.4-3.8l-15.3,4.7l-0.6,5.1c-0.1,0.8-0.5,1.6-1.6,2l-6.2,1.9
			C354.8,536.8,354.1,536.2,354.2,535.4z M373.6,516.3l-7.1-8l-0.1,0l-1.4,10.6L373.6,516.3z"/>
		<path class="st1" d="M398.1,500.2c-5.9-10.2-2.4-23.1,7.7-29c5.1-2.9,9.8-3.5,15-2.4c0.7,0.1,1,0.8,0.9,1.4l-1.6,6.4
			c-0.2,0.6-0.7,0.9-1.3,0.7c-2.9-0.6-5.9-0.1-8.4,1.4c-5.7,3.3-7.2,10.5-3.9,16.2c3.3,5.6,10.2,7.9,16,4.5c2.4-1.4,4.5-3.7,5.4-6.4
			c0.2-0.5,0.8-0.9,1.4-0.7l6.4,1.9c0.6,0.1,0.9,0.8,0.7,1.4c-1.4,5.2-4.8,9.2-9.1,11.9l1.2,2.1c3.3-1.4,6.1-0.3,7.7,2.5
			c1.7,2.9,0.7,6.8-2.3,8.5c-1.5,0.9-3.4,1-4.9,0.5c-0.7-0.2-0.9-0.8-0.6-1.6l0.6-1.7c0.1-0.5,0.7-0.7,1.1-0.5
			c0.5,0.2,1.1,0,1.5-0.2c0.8-0.5,1.1-1.7,0.6-2.5c-0.4-0.7-1.5-1.8-4.7-0.1c-0.8,0.3-1.2-0.2-1.4-0.4l-2.7-4.6
			C414.1,512.9,403.4,509.3,398.1,500.2z"/>
		<path class="st1" d="M429,447.4c-0.5,0.1-1-0.3-1.2-0.7c-0.3-1.2-1.1-5.7,1.2-7.9c2.1-1.9,4.9-0.7,6.5-2.3
			c0.7-0.6,0.5-2.1,0.4-2.9c-0.1-0.5,0.2-1.1,1-1.1l2.5-0.2c0.6-0.1,1.1,0.4,1.2,1.2c0.3,1.1,1.1,5.2-1.2,7.4
			c-2.2,2.1-5.2,1-6.7,2.3c-0.8,0.7-0.3,2.3-0.3,3.1c0,0.5-0.3,0.8-0.9,0.9L429,447.4z M452.7,488.6l-13.5-41.5
			c-0.1-0.4,0-0.9,0.3-1.2l0.4-0.4c0.3-0.3,0.8-0.3,1.2-0.2l40.4,16.4c0.8,0.3,1,1.2,0.3,1.8L477,468c-0.8,0.7-1.4,0.8-2.5,0.3
			l-4.7-2l-11.7,10.9l1.7,4.9c0.3,0.7,0.3,1.7-0.6,2.5l-4.7,4.4C453.8,489.6,452.9,489.4,452.7,488.6z M461.7,462.9l-9.9-4l0,0
			l3.4,10.1L461.7,462.9z"/>
		<path class="st1" d="M471.3,408.1c6.4-9.8,19.5-12.5,29.3-6.1c9.8,6.4,12.5,19.4,6.1,29.2c-6.4,9.8-19.4,12.6-29.2,6.1
			C467.7,431,464.9,418,471.3,408.1z M498.9,426.1c3.5-5.4,2-12.7-3.4-16.2c-5.4-3.5-12.8-2-16.3,3.4c-3.5,5.4-1.9,12.7,3.5,16.2
			C488,433,495.4,431.5,498.9,426.1z"/>
	</g>
	<g>
		<path class="st1" d="M166.5,100.8c-0.3-0.5-0.2-1.2,0.4-1.5l20.7-12.8c0.5-0.3,1.2-0.1,1.5,0.4l3.4,5.4c0.3,0.5,0.2,1.2-0.4,1.5
			l-13.8,8.6l4.5,7.2l11.4-7.1c0.5-0.3,1.2-0.1,1.5,0.4l3.4,5.4c0.3,0.5,0.1,1.2-0.4,1.5l-11.4,7.1l7.5,12.1
			c0.3,0.5,0.1,1.2-0.4,1.5l-5.9,3.6c-0.5,0.3-1.2,0.1-1.5-0.4L166.5,100.8z"/>
		<path class="st1" d="M205.9,78.7c-0.2-0.6,0.1-1.2,0.7-1.4l16.5-6c6.6-2.4,14,0.9,16.4,7.5c1.9,5.1,0,10.4-4.1,14.1L248,104
			c0.6,0.6,0.6,1.6-0.4,1.9l-7.3,2.7c-0.4,0.2-0.9,0-1.1-0.2l-12.7-11.9l-3.8,1.4l5.2,14.1c0.2,0.6-0.1,1.2-0.7,1.4l-6.6,2.4
			c-0.6,0.2-1.2-0.1-1.4-0.7L205.9,78.7z M228.4,88c2.3-0.8,3.4-3.6,2.6-5.9c-0.8-2.3-3.5-3.5-5.7-2.7l-8.2,3l3.2,8.6L228.4,88z"/>
		<path class="st1" d="M255.2,102.1l13-41.6c0.1-0.4,0.5-0.7,0.9-0.8l0.6-0.1c0.4-0.1,0.9,0.2,1.1,0.5l23.5,36.7
			c0.5,0.7,0.1,1.5-0.8,1.6l-6.5,0.9c-1,0.1-1.6-0.1-2.2-1.2l-2.7-4.3L266.2,96l-1.5,4.9c-0.2,0.7-0.7,1.5-1.9,1.7l-6.4,0.9
			C255.5,103.6,255,102.9,255.2,102.1z M277.5,86.4l-5.7-9l-0.1,0l-3.1,10.2L277.5,86.4z"/>
		<path class="st1" d="M306.8,57.9c0.1-0.6,0.6-1,1.2-0.9l1.5,0.1l21.2,24.7l0.1,0l2-20.8c0.1-0.6,0.6-1.1,1.2-1l7,0.7
			c0.6,0.1,1.1,0.6,1,1.2l-3.7,39.4c-0.1,0.6-0.6,1-1.2,0.9l-0.9-0.1c-0.2,0-0.6-0.2-0.7-0.4l-20.9-25.4l-0.1,0l-2.1,21.8
			c-0.1,0.6-0.6,1.1-1.2,1l-7-0.7c-0.6-0.1-1.1-0.6-1-1.2L306.8,57.9z"/>
		<path class="st1" d="M382.3,71.3c5.6,1.9,9.1,5,11.7,9.8c0.3,0.6,0.1,1.3-0.5,1.6l-5.9,3c-0.5,0.3-1.1,0-1.4-0.5
			c-1.4-2.5-3.8-4.5-6.5-5.4c-6.3-2.1-12.7,1.5-14.8,7.8c-2.1,6.2,0.8,12.9,7.1,15c2.6,0.9,5.8,0.9,8.4-0.1c0.5-0.2,1.2,0,1.4,0.5
			l2.8,6.1c0.3,0.5,0,1.2-0.6,1.5c-5,2.4-10.4,2.5-15.4,0.8c-11.1-3.8-17.1-15.7-13.3-26.8C359.2,73.5,371.2,67.6,382.3,71.3z"/>
		<path class="st1" d="M412.5,86.1c0.3-0.5,1-0.7,1.5-0.4L435,98.2c0.6,0.3,0.7,1,0.4,1.5l-3.3,5.5c-0.3,0.5-1,0.7-1.5,0.4l-14-8.3
			l-3.7,6.3l11.5,6.8c0.5,0.3,0.7,1,0.4,1.5l-3.3,5.5c-0.3,0.6-1,0.7-1.5,0.4l-11.5-6.8l-4,6.8l14,8.3c0.6,0.3,0.7,1,0.4,1.5
			l-3.3,5.5c-0.3,0.5-1,0.7-1.5,0.4l-20.9-12.4c-0.6-0.3-0.7-1-0.4-1.5L412.5,86.1z"/>
	</g>
</g>
</svg>
