<?xml version="1.0" encoding="utf-8"?>
<!-- Generator: Adobe Illustrator 19.2.0, SVG Export Plug-In . SVG Version: 6.00 Build 0)  -->
<svg version="1.0" id="Calque_1" xmlns="http://www.w3.org/2000/svg" xmlns:xlink="http://www.w3.org/1999/xlink" x="0px" y="0px"
	 viewBox="0 0 595.3 595.3" style="enable-background:new 0 0 595.3 595.3;" xml:space="preserve">
<style type="text/css">
	.st0{fill:#E22000;}
	.st1{fill:#FFFFFF;}
</style>
<circle class="st0" cx="297.7" cy="298" r="283.5"/>
<g>
	<g>
		<path class="st1" d="M168.6,449.4c-5.6,0-12.7-1.3-18.3-6.9c-10.5-10.5-6.2-26.8-6-27.4c0.2-0.9,0.7-1.7,1.4-2.4l26.2-26.7
			c1.2-1.2,3-1.9,4.7-1.6c1.7,0.2,3.3,1.3,4.1,2.8c5.1,9.1,20.3,21.4,25.7,25.4c1.3,1,2.1,2.5,2.2,4.1c0.1,1.6-0.5,3.2-1.7,4.4
			l-27,26c-0.6,0.6-1.4,1.1-2.3,1.3C177.3,448.3,173.6,449.4,168.6,449.4z M154.7,419.2c-0.5,3-1.3,10.7,3.4,15.4
			c4.7,4.7,12.2,3.8,15.2,3.2l21.2-20.4c-5.3-4.3-13.7-11.6-19.5-18.9L154.7,419.2z"/>
		<path class="st1" d="M419.7,205.6c-0.2,0-0.5,0-0.7,0c-1.7-0.2-3.3-1.3-4.1-2.8c-5.1-9.1-20.3-21.5-25.7-25.5
			c-1.3-1-2.1-2.5-2.2-4.1c-0.1-1.6,0.5-3.2,1.7-4.4l27-25.9c0.6-0.6,1.4-1.1,2.3-1.3c0.7-0.2,16.8-4.7,27.3,5.8
			c10.5,10.5,6.2,26.7,6,27.4c-0.2,0.9-0.7,1.7-1.4,2.4L423.7,204C422.6,205,421.2,205.6,419.7,205.6z M401,172.4
			c5.3,4.3,13.7,11.6,19.5,18.9l20.3-20.8c0.5-3,1.3-10.7-3.4-15.4c-4.7-4.7-12.2-3.8-15.2-3.3L401,172.4z"/>
		<path class="st1" d="M230.1,430.4c-4.6,0-23-1.6-46.2-24.7c-26-26-23.5-43.6-23.1-45.5c0.2-1.1,0.7-2.1,1.5-2.9l95.1-95.2
			c0,0,0-0.1,0.1-0.1L361,158.6c0.9-0.9,2.1-1.5,3.4-1.6c0.9-0.1,21-1.5,47.2,24.7c26,26,23.5,43.6,23.1,45.5
			c-0.2,1.1-0.7,2.1-1.5,2.9l-95,95.1c0,0-0.1,0.1-0.1,0.1v0L234.6,428.8c-0.9,0.9-2.1,1.5-3.4,1.6
			C231.1,430.4,230.7,430.4,230.1,430.4z M171.7,363.7c0.2,4,2.3,16.4,20.1,34.2c17.8,17.8,31.8,20.9,36.6,21.3l93.7-93.8
			c0,0,0.1-0.1,0.1-0.1l101.6-101.7c-0.2-4-2.3-16.4-20.1-34.2c-17.9-17.8-31.8-20.9-36.6-21.3L273.4,262c0,0,0,0-0.1,0.1
			L171.7,363.7z"/>
		<path class="st1" d="M271.3,339.4c-3.1,0-5.6-2.5-5.6-5.6l0-32.2c0-3.1,2.5-5.6,5.6-5.6c0,0,0,0,0,0c3.1,0,5.6,2.5,5.6,5.6l0,32.2
			C276.9,336.9,274.4,339.4,271.3,339.4C271.3,339.4,271.3,339.4,271.3,339.4z"/>
		<path class="st1" d="M293.7,317c-3.1,0-5.6-2.5-5.6-5.6l0-32.2c0-3.1,2.5-5.6,5.6-5.6c0,0,0,0,0,0c3.1,0,5.6,2.5,5.6,5.6l0,32.2
			C299.3,314.5,296.8,317,293.7,317C293.7,317,293.7,317,293.7,317z"/>
		<path class="st1" d="M316.4,294.3c-3.1,0-5.6-2.5-5.6-5.6l0-32.2c0-3.1,2.5-5.6,5.6-5.6c0,0,0,0,0,0c3.1,0,5.6,2.5,5.6,5.6l0,32.2
			C322,291.8,319.5,294.3,316.4,294.3C316.5,294.3,316.4,294.3,316.4,294.3z"/>
	</g>
	<g>
		<path class="st1" d="M230.3,491.9c0.2-0.6,0.7-1,1.4-0.8l13.2,3.6c6.7,1.8,10.9,7.9,9.3,13.9c-1.2,4.4-6,6.5-9,7.2
			c2.7,2.1,6.5,6.1,5.1,11.3c-1.7,6.3-8.6,9.4-15.4,7.5l-14.1-3.9c-0.6-0.2-0.9-0.8-0.8-1.4L230.3,491.9z M236,526.2
			c2.2,0.6,4.6-0.7,5.2-3c0.6-2.3-1.3-4.6-3.6-5.2l-4.6-1.3l-2.2,8.1L236,526.2z M239.5,510.6c2.2,0.6,4.5-0.7,5.1-3
			c0.6-2.3-0.8-4.4-2.9-4.9l-4.4-1.2l-2.2,7.9L239.5,510.6z"/>
		<path class="st1" d="M290.6,500.8c11.7,0.4,20.8,10.1,20.5,21.9c-0.4,11.7-10.1,20.8-21.8,20.4c-11.7-0.4-20.8-10-20.4-21.8
			C269.3,509.6,278.9,500.5,290.6,500.8z M289.6,533.7c6.5,0.2,11.9-4.9,12.1-11.3c0.2-6.5-4.9-12-11.4-12.2
			c-6.4-0.2-11.9,5-12.1,11.4C278.1,528.1,283.2,533.5,289.6,533.7z"/>
		<path class="st1" d="M326.2,501.2c-0.1-0.6,0.3-1.2,0.8-1.3l7-1.6c0.6-0.1,1.2,0.3,1.3,0.8l5.3,23.2c0.9,4,4.6,6.5,8.7,5.6
			c4.1-0.9,6.4-4.8,5.5-8.9l-5.3-23.2c-0.1-0.6,0.2-1.2,0.8-1.3l7-1.6c0.6-0.1,1.2,0.3,1.3,0.8l5.4,23.7c2,8.7-3.7,17.6-12.7,19.7
			c-9,2.1-17.9-3.5-19.9-12.2L326.2,501.2z"/>
		<path class="st1" d="M373.8,487.9c-0.2-0.5,0-1.2,0.5-1.5l6.3-2.9c0.5-0.2,1.2,0,1.5,0.5l13.2,28.5l12.7-5.9
			c0.6-0.3,1.2,0,1.5,0.5l2.7,5.8c0.2,0.5,0,1.2-0.5,1.5l-20,9.3c-0.6,0.3-1.2,0-1.5-0.5L373.8,487.9z"/>
		<path class="st1" d="M426.5,504.5l-8.8-42.7c-0.1-0.4,0.1-0.9,0.4-1.1l0.5-0.4c0.3-0.2,0.8-0.3,1.2-0.1l38.4,20.8
			c0.7,0.4,0.8,1.3,0.1,1.8l-5.2,3.9c-0.8,0.6-1.4,0.6-2.5,0l-4.5-2.5l-12.8,9.5l1.1,5c0.2,0.7,0.1,1.7-0.9,2.4l-5.2,3.9
			C427.5,505.6,426.7,505.3,426.5,504.5z M438.4,480l-9.4-5.1l0,0l2.3,10.4L438.4,480z"/>
		<path class="st1" d="M443.5,440.8c-0.5-0.4-0.5-1.1-0.1-1.5l0.9-1.1l32.3-3.9l0,0l-16.2-13.2c-0.5-0.4-0.6-1.1-0.2-1.6l4.5-5.5
			c0.4-0.5,1.1-0.5,1.6-0.2l30.6,25c0.5,0.4,0.5,1.1,0.1,1.5l-0.6,0.7c-0.1,0.1-0.5,0.4-0.7,0.4l-32.8,3.2l0,0l17,13.9
			c0.5,0.4,0.6,1.1,0.2,1.6l-4.4,5.4c-0.4,0.5-1.1,0.5-1.6,0.2L443.5,440.8z"/>
		<path class="st1" d="M481.8,381.2c2.1-4.5,6.2-8.5,11-10.7c0.6-0.3,1.3-0.1,1.5,0.6l2.5,6.3c0.2,0.6-0.1,1.2-0.6,1.5
			c-2.8,1.2-4.6,3.2-5.8,5.8c-2.7,5.8,0.1,12.8,5.9,15.5c5.8,2.7,12.8,0.2,15.5-5.7c0.7-1.5,1.2-3.2,1.3-5.1l-3.1-1.4l-1.6,3.4
			c-0.3,0.6-0.9,0.8-1.4,0.6l-5.3-2.4c-0.6-0.3-0.8-0.9-0.5-1.5l5-10.7c0.2-0.5,0.9-0.7,1.5-0.5l14.4,6.6c0.3,0.1,0.6,0.5,0.7,0.8
			c0,0,0.9,7.1-2.6,14.8c-4.9,10.6-17.3,15.3-27.9,10.3C481.5,404.3,476.9,391.8,481.8,381.2z"/>
		<path class="st1" d="M493.8,354c-0.6-0.1-1-0.7-0.9-1.3l5.2-23.8c0.1-0.6,0.8-1,1.3-0.8l6.3,1.4c0.6,0.1,1,0.7,0.9,1.3l-3.5,15.9
			l7.1,1.6l2.9-13.1c0.1-0.6,0.8-1,1.3-0.9l6.3,1.4c0.6,0.1,1,0.8,0.9,1.3l-2.9,13.1l7.7,1.7l3.5-15.9c0.1-0.6,0.8-1,1.3-0.8
			l6.3,1.4c0.6,0.1,1,0.7,0.9,1.3l-5.2,23.8c-0.1,0.6-0.8,1-1.3,0.9L493.8,354z"/>
		<path class="st1" d="M501,313.6c-0.6,0-1.1-0.5-1.1-1.1l0.1-17.6c0-7.1,5.7-12.8,12.7-12.8c5.4,0,9.7,3.6,11.8,8.7l14.9-8
			c0.8-0.4,1.7,0,1.7,1l0,7.8c0,0.5-0.3,0.8-0.5,0.9l-15.6,7.8l0,4.1l15,0c0.6,0,1.1,0.5,1.1,1.1l0,7c0,0.6-0.5,1.1-1.1,1.1
			L501,313.6z M517.6,295.7c0-2.4-2.2-4.5-4.7-4.5s-4.5,2-4.5,4.5l0,8.7l9.2,0L517.6,295.7z"/>
	</g>
	<g>
		<path class="st1" d="M98.8,274L64,247.6c-0.3-0.2-0.5-0.7-0.4-1.1l0.1-0.6c0.1-0.4,0.5-0.7,0.8-0.8l42.6-9.5
			c0.8-0.2,1.5,0.4,1.3,1.3l-1.4,6.4c-0.2,1-0.7,1.4-1.9,1.7l-5,1.1l-3.4,15.6l4.1,3.1c0.6,0.4,1.2,1.2,0.9,2.4l-1.4,6.3
			C100.3,274.2,99.4,274.5,98.8,274z M91.6,247.7L81.2,250l0,0.1l8.5,6.4L91.6,247.7z"/>
		<path class="st1" d="M83.6,212.2l-3.3,7.7c-0.2,0.6-0.9,0.8-1.5,0.6l-5.9-2.5c-0.5-0.2-0.8-0.9-0.6-1.5l10.1-24.1
			c0.3-0.6,0.9-0.8,1.5-0.6l5.9,2.5c0.5,0.2,0.8,0.9,0.6,1.5l-3.3,7.7l28.9,12.2c0.5,0.2,0.8,0.9,0.6,1.5l-2.7,6.5
			c-0.2,0.5-0.9,0.8-1.5,0.6L83.6,212.2z"/>
		<path class="st1" d="M92.3,176.7c-0.5-0.3-0.7-1-0.3-1.5l13.4-20.3c0.4-0.5,1.1-0.6,1.5-0.3l5.4,3.5c0.5,0.3,0.7,1,0.3,1.5
			l-8.9,13.6l6.1,4l7.4-11.2c0.3-0.5,1.1-0.6,1.5-0.3l5.4,3.5c0.5,0.4,0.6,1.1,0.3,1.5l-7.4,11.2l6.6,4.4l8.9-13.6
			c0.4-0.5,1.1-0.6,1.5-0.3l5.4,3.5c0.5,0.3,0.7,1,0.3,1.5l-13.4,20.3c-0.4,0.5-1.1,0.6-1.5,0.3L92.3,176.7z"/>
		<path class="st1" d="M119.3,139.6c-0.4-0.4-0.5-1.1,0-1.6l4.8-5c0.4-0.4,1.2-0.4,1.6,0l22.6,21.7l9.7-10.1c0.4-0.5,1.2-0.4,1.6,0
			l4.6,4.4c0.4,0.4,0.5,1.1,0,1.6l-15.3,15.9c-0.4,0.5-1.2,0.4-1.6,0L119.3,139.6z"/>
		<path class="st1" d="M148.5,111.9c-0.4-0.5-0.3-1.2,0.2-1.6l5.6-4.3c0.5-0.4,1.2-0.3,1.6,0.2l23.8,30.7c0.4,0.5,0.3,1.2-0.2,1.6
			l-5.6,4.3c-0.5,0.4-1.2,0.3-1.6-0.2L148.5,111.9z"/>
		<path class="st1" d="M172.8,94.4c-0.3-0.5-0.1-1.2,0.4-1.5l21.3-11.7c0.6-0.3,1.2-0.1,1.5,0.4l3.1,5.6c0.3,0.5,0.1,1.2-0.4,1.5
			l-14.3,7.8l3.5,6.4l11.7-6.5c0.5-0.3,1.2-0.1,1.5,0.4l3.1,5.6c0.3,0.6,0.1,1.2-0.4,1.5l-11.7,6.5l3.8,6.9l14.3-7.9
			c0.6-0.3,1.2-0.1,1.5,0.4l3.1,5.6c0.3,0.5,0.1,1.2-0.4,1.5l-21.3,11.7c-0.6,0.3-1.2,0.1-1.5-0.4L172.8,94.4z M176.1,86.9l-3-1.5
			c-0.5-0.2-0.4-0.8-0.2-1.1l4-9.2c0.2-0.5,0.8-0.7,1.2-0.7l10.1,1.4c0.4,0.1,0.8,0.3,0.8,0.8l-0.4,3.3c-0.1,0.5-0.5,0.9-0.9,0.9
			l-6.7-0.2l-3.5,5.8C176.9,87.1,176.6,87.1,176.1,86.9z"/>
		<path class="st1" d="M235.4,66.9c-0.1-0.6,0.2-1.2,0.8-1.3l14.1-2.8c11.1-2.2,22,5,24.2,16.1c2.2,11.2-5.1,22-16.2,24.2l-14.1,2.8
			c-0.6,0.1-1.1-0.3-1.3-0.9L235.4,66.9z M256.1,94.7c6.5-1.3,10.2-7.4,8.9-13.9c-1.3-6.5-7-10.7-13.5-9.4l-5.5,1.1l4.6,23.3
			L256.1,94.7z"/>
		<path class="st1" d="M309.4,57.6c11.7,0.6,20.7,10.4,20.1,22.2s-10.4,20.6-22.1,20.1c-11.7-0.6-20.6-10.3-20.1-22.1
			C287.9,66.1,297.6,57.1,309.4,57.6z M307.8,90.5c6.5,0.3,12-4.7,12.3-11.1c0.3-6.5-4.7-12-11.2-12.3c-6.4-0.3-11.9,4.8-12.2,11.3
			C296.4,84.7,301.4,90.2,307.8,90.5z"/>
	</g>
	<path class="st1" d="M125.9,297.9c0-93.9,76.4-170.3,170.3-170.3c27.7,0,53.8,6.6,76.9,18.4l4.1-4.2l4-4.1
		c-25.4-13.5-54.3-21.2-85-21.2c-100,0-181.4,81.4-181.4,181.4c0,30.6,7.6,59.5,21.1,84.8l8.9-7.1
		C132.7,352.4,125.9,325.9,125.9,297.9z"/>
	<path class="st1" d="M477.6,297.9c0-32.1-8.4-62.3-23.1-88.5l-4,4.1l-4.1,4.2c12.8,23.9,20.1,51.2,20.1,80.2
		c0,93.9-76.4,170.3-170.3,170.3c-29.6,0-57.5-7.6-81.8-21l-8.2,8.2c26.6,15.3,57.3,24,90.1,24C396.2,479.4,477.6,398,477.6,297.9z"
		/>
</g>
</svg>
